<svg viewBox="0 0 128 128" xmlns="http://www.w3.org/2000/svg" style="height: 100%; width: 100%; background: none repeat scroll 0% 0%;" width="169px" height="169px">
<style>
@keyframes blur-d17b42e5-8498-4ce3-85f6-8a96e4340561 {
  0% { opacity: 1; }
  64.675% { opacity: 1; }
  65.325% { opacity: 0; }
  99.35% { opacity: 0; }
  100% { opacity: 1; }
}

svg{
  box-sizing: border-box;
  border-radius: 60px;
}
</style>
<g style="transform-origin: 50% 50% 0px; transform: rotate(0deg) scale(0.81);" class="ldl-scale"><g class="ldl-ani" style="transform-origin: 64px 64px 0px; filter: blur(0px); animation: 1.51515s linear 0s infinite normal forwards running blur-d17b42e5-8498-4ce3-85f6-8a96e4340561;"><g class="ldl-layer"><g class="ldl-ani"><path d="M18.814 114.123L8.76 1.352h110.48l-10.064 112.754-45.243 12.543-45.119-12.526z" fill="#1572B6" style="fill: rgb(21, 114, 182);"></path></g></g><g class="ldl-layer"><g class="ldl-ani"><path d="M64.001 117.062l36.559-10.136 8.601-96.354h-45.16v106.49z" fill="#33A9DC" style="fill: rgb(51, 169, 220);"></path></g></g><g class="ldl-layer"><g class="ldl-ani"><path d="M64.001 51.429h18.302l1.264-14.163H64.001V23.435h34.682l-.332 3.711-3.4 38.114h-30.95V51.429z" fill="#fff" style="fill: rgb(255, 255, 255);"></path></g></g><g class="ldl-layer"><g class="ldl-ani"><path d="M64.083 87.349l-.061.018-15.403-4.159-.985-11.031H33.752l1.937 21.717 28.331 7.863.063-.018v-14.39z" fill="#EBEBEB" style="fill: rgb(235, 235, 235);"></path></g></g><g class="ldl-layer"><g class="ldl-ani"><path d="M81.127 64.675l-1.666 18.522-15.426 4.164v14.39l28.354-7.858.208-2.337 2.406-26.881H81.127z" fill="#fff" style="fill: rgb(255, 255, 255);"></path></g></g><g class="ldl-layer"><g class="ldl-ani"><path d="M64.048 23.435v13.831H30.64l-.277-3.108-.63-7.012-.331-3.711h34.646zm-.047 27.996v13.831H48.792l-.277-3.108-.631-7.012-.33-3.711h16.447z" fill="#EBEBEB" style="fill: rgb(235, 235, 235);"></path></g></g></g></g></svg>