<svg xmlns="http://www.w3.org/2000/svg" style="margin:auto;background:rgba(241, 242, 243, 0);display:block;" width="909" height="155" preserveAspectRatio="xMidYMid">
<style type="text/css">
  text {
    text-anchor: middle; font-size: 80px; opacity: 0;
  }
  @keyframes blink-9e5f01bf-78bb-40f9-85cf-dc57438ad15b {
  0% { opacity: 1; }
  90.545% { opacity: 1; }
  91.455% { opacity: 0; }
  99.09% { opacity: 0; }
  100% { opacity: 1; }
}
</style>
<g style="transform-origin:454.5px 77.5px;transform:scale(1)">
<g transform="translate(454.5,77.5)">
  <g transform="translate(0,0)"><g class="path" style="opacity: 1; transform-origin: -393.217px -6.21544px 0px; animation: 1s linear -0.933333s infinite normal forwards running blink-9e5f01bf-78bb-40f9-85cf-dc57438ad15b;"><path d="M13.28-56L-0.40-56L-0.40 0L36.80 0L36.80-13.20L13.28-13.20" fill="#c0acff" stroke="none" stroke-width="none" transform="translate(-411.41666412353516,21.78455723063152)" style="fill: rgb(192, 172, 255);"></path></g><g class="path" style="opacity: 1; transform-origin: -342.657px -6.53544px 0px; animation: 1s linear -0.866667s infinite normal forwards running blink-9e5f01bf-78bb-40f9-85cf-dc57438ad15b;"><path d="M81.04 0L96.48 0L73.20-56.64L63.44-56.64L41.04 0L55.68 0L58.80-8.24L77.92-8.24zM68.40-34.08L72.72-21.92L73.04-20.96L63.76-20.96L64.24-22.24" fill="#c0acff" stroke="none" stroke-width="none" transform="translate(-411.41666412353516,21.78455723063152)" style="fill: rgb(107, 62, 255);"></path></g><g class="path" style="opacity: 1; transform-origin: -289.537px -6.21544px 0px; animation: 1s linear -0.8s infinite normal forwards running blink-9e5f01bf-78bb-40f9-85cf-dc57438ad15b;"><path d="M113.76 0L113.76-27.28L132.88 0L143.60 0L143.60-56L130.08-56L130.08-28L110.72-56L100.16-56L100.16 0" fill="#c0acff" stroke="none" stroke-width="none" transform="translate(-411.41666412353516,21.78455723063152)" style="fill: rgb(35, 0, 151);"></path></g><g class="path" style="opacity: 1; transform-origin: -233.017px -6.17544px 0px; animation: 1s linear -0.733333s infinite normal forwards running blink-9e5f01bf-78bb-40f9-85cf-dc57438ad15b;"><path d="M178.48-43.44C183.60-43.44 190.08-41.20 192.08-33.20L206.48-33.20C204.16-50.80 189.36-56.80 178.48-56.80C162.64-56.80 150.16-44.72 150.16-27.92C150.16-11.20 162.32 0.88 178.48 0.88C188.96 0.88 200.72-6.24 204.64-16.96C205.52-19.04 206.64-23.12 206.64-29.60L172.40-29.60L172.40-17.36L189.52-17.36C186.56-13.36 182.24-12.16 178.48-12.16C170.24-12.16 164.00-18.40 164.00-27.92C164.00-36.96 170.24-43.44 178.48-43.44" fill="#c0acff" stroke="none" stroke-width="none" transform="translate(-411.41666412353516,21.78455723063152)" style="fill: rgb(192, 172, 255);"></path></g><g class="path" style="opacity: 1; transform-origin: -175.977px -5.81506px 0px; animation: 1s linear -0.666667s infinite normal forwards running blink-9e5f01bf-78bb-40f9-85cf-dc57438ad15b;"><path d="M235.36 0.80C246.16 0.88 257.04-5.36 257.04-18L257.04-56L243.36-56L243.36-18.08C243.36-9.84 227.52-9.68 227.52-18.08L227.52-56L213.84-56L213.84-18C213.84-5.36 224.56 0.80 235.36 0.80" fill="#c0acff" stroke="none" stroke-width="none" transform="translate(-411.41666412353516,21.78455723063152)" style="fill: rgb(107, 62, 255);"></path></g><g class="path" style="opacity: 1; transform-origin: -123.537px -6.53544px 0px; animation: 1s linear -0.6s infinite normal forwards running blink-9e5f01bf-78bb-40f9-85cf-dc57438ad15b;"><path d="M300.16 0L315.60 0L292.32-56.64L282.56-56.64L260.16 0L274.80 0L277.92-8.24L297.04-8.24zM287.52-34.08L291.84-21.92L292.16-20.96L282.88-20.96L283.36-22.24" fill="#c0acff" stroke="none" stroke-width="none" transform="translate(-411.41666412353516,21.78455723063152)" style="fill: rgb(192, 172, 255);"></path></g><g class="path" style="opacity: 1; transform-origin: -67.8167px -6.17544px 0px; animation: 1s linear -0.533333s infinite normal forwards running blink-9e5f01bf-78bb-40f9-85cf-dc57438ad15b;"><path d="M343.68-43.44C348.80-43.44 355.28-41.20 357.28-33.20L371.68-33.20C369.36-50.80 354.56-56.80 343.68-56.80C327.84-56.80 315.36-44.72 315.36-27.92C315.36-11.20 327.52 0.88 343.68 0.88C354.16 0.88 365.92-6.24 369.84-16.96C370.72-19.04 371.84-23.12 371.84-29.60L337.60-29.60L337.60-17.36L354.72-17.36C351.76-13.36 347.44-12.16 343.68-12.16C335.44-12.16 329.20-18.40 329.20-27.92C329.20-36.96 335.44-43.44 343.68-43.44" fill="#c0acff" stroke="none" stroke-width="none" transform="translate(-411.41666412353516,21.78455723063152)" style="fill: rgb(107, 62, 255);"></path></g><g class="path" style="opacity: 1; transform-origin: -15.8167px -6.21544px 0px; animation: 1s linear -0.466667s infinite normal forwards running blink-9e5f01bf-78bb-40f9-85cf-dc57438ad15b;"><path d="M390.88-21.36L413.52-21.36L413.52-34.64L390.88-34.64L390.88-42.80L414-42.80L414-56L377.12-56L377.12 0L414.08 0L414.08-13.20L390.88-13.20" fill="#c0acff" stroke="none" stroke-width="none" transform="translate(-411.41666412353516,21.78455723063152)" style="fill: rgb(35, 0, 151);"></path></g><g class="path" style="opacity: 1; transform-origin: 29.2233px -6.25544px 0px; animation: 1s linear -0.4s infinite normal forwards running blink-9e5f01bf-78bb-40f9-85cf-dc57438ad15b;"><path d="M461.44-38.32C461.44-51.20 450.64-56.80 440.64-56.80C428.72-56.80 418.64-49.44 419.28-37.12L419.28-37.20C420.32-24.32 431.04-22.32 440.08-21.44C442.16-21.20 448.56-21.04 448.56-17.04C448.56-13.84 444.96-12.56 440.48-12.56C437.36-12.56 432.72-13.60 432.72-19.12L418.88-19.12C418.88-4.88 431.28 0.72 440.40 0.72C451.04 0.72 462.40-6 462.40-17.68C462.40-18.88 462.24-20.32 462-21.60C459.60-31.68 449.60-33.76 441.68-34.80C439.84-34.96 433.20-35.04 433.20-39.20C433.20-42.24 436.16-44.08 440.40-44.08C444.64-44.08 447.68-42.08 447.68-38.32" fill="#c0acff" stroke="none" stroke-width="none" transform="translate(-411.41666412353516,21.78455723063152)" style="fill: rgb(192, 172, 255);"></path></g><g class="path" style="opacity: 1; transform-origin: 100.463px -6.29544px 0px; animation: 1s linear -0.333333s infinite normal forwards running blink-9e5f01bf-78bb-40f9-85cf-dc57438ad15b;"><path d="M522.48-29.36L520-26L516.96-29.04C521.28-32 524.48-35.76 524.48-42.24C524.48-50.88 516.96-56.88 509.04-56.88C500.48-56.88 492.40-51.28 492.40-41.68C492.40-37.68 493.76-34.72 495.68-31.92C491.12-28.56 487.52-24.48 487.52-17.36C487.52-6.24 496 0.72 506.56 0.72C512.88 0.72 516.80-0.96 520.56-4.64L524.48 0.08L536.24 0.08L536.24-7.68L529.04-15.92L533.84-22.08zM512.40-14.48C509.36-11.12 504.64-10.96 502.24-13.68C499.20-17.04 501.76-20.64 504.48-22.72zM511.68-42.48C511.60-40.48 509.84-38.80 507.60-37.28C506-39.12 504.96-40.48 504.96-42C504.88-46.72 511.84-46.32 511.68-42.48" fill="#c0acff" stroke="none" stroke-width="none" transform="translate(-411.41666412353516,21.78455723063152)" style="fill: rgb(107, 62, 255);"></path></g><g class="path" style="opacity: 1; transform-origin: 172.103px -6.21544px 0px; animation: 1s linear -0.266667s infinite normal forwards running blink-9e5f01bf-78bb-40f9-85cf-dc57438ad15b;"><path d="M590.40 0L590.40-43.20L605.44-43.20L605.44-56L561.60-56L561.60-43.20L576.72-43.20L576.72 0" fill="#c0acff" stroke="none" stroke-width="none" transform="translate(-411.41666412353516,21.78455723063152)" style="fill: rgb(192, 172, 255);"></path></g><g class="path" style="opacity: 1; transform-origin: 226.303px -6.25544px 0px; animation: 1s linear -0.2s infinite normal forwards running blink-9e5f01bf-78bb-40f9-85cf-dc57438ad15b;"><path d="M608.72-27.92C608.72-11.44 621.68 0.80 637.68 0.80C653.68 0.80 666.72-11.68 666.72-27.92C666.72-44.40 653.68-56.88 637.68-56.88C621.68-56.88 608.72-44.40 608.72-27.92zM622.32-27.92C622.32-49.12 652.96-49.04 652.96-27.92C652.96-6.96 622.32-6.80 622.32-27.92" fill="#c0acff" stroke="none" stroke-width="none" transform="translate(-411.41666412353516,21.78455723063152)" style="fill: rgb(107, 62, 255);"></path></g><g class="path" style="opacity: 1; transform-origin: 290.143px -6.25544px 0px; animation: 1s linear -0.133333s infinite normal forwards running blink-9e5f01bf-78bb-40f9-85cf-dc57438ad15b;"><path d="M672.56-27.92C672.56-11.44 685.52 0.80 701.52 0.80C717.52 0.80 730.56-11.68 730.56-27.92C730.56-44.40 717.52-56.88 701.52-56.88C685.52-56.88 672.56-44.40 672.56-27.92zM686.16-27.92C686.16-49.12 716.80-49.04 716.80-27.92C716.80-6.96 686.16-6.80 686.16-27.92" fill="#c0acff" stroke="none" stroke-width="none" transform="translate(-411.41666412353516,21.78455723063152)" style="fill: rgb(35, 0, 151);"></path></g><g class="path" style="opacity: 1; transform-origin: 344.543px -6.21544px 0px; animation: 1s linear -0.0666667s infinite normal forwards running blink-9e5f01bf-78bb-40f9-85cf-dc57438ad15b;"><path d="M751.04-56L737.36-56L737.36 0L774.56 0L774.56-13.20L751.04-13.20" fill="#c0acff" stroke="none" stroke-width="none" transform="translate(-411.41666412353516,21.78455723063152)" style="fill: rgb(192, 172, 255);"></path></g><g class="path" style="opacity: 1; transform-origin: 389.223px -6.25544px 0px; animation: 1s linear 0s infinite normal forwards running blink-9e5f01bf-78bb-40f9-85cf-dc57438ad15b;"><path d="M821.44-38.32C821.44-51.20 810.64-56.80 800.64-56.80C788.72-56.80 778.64-49.44 779.28-37.12L779.28-37.20C780.32-24.32 791.04-22.32 800.08-21.44C802.16-21.20 808.56-21.04 808.56-17.04C808.56-13.84 804.96-12.56 800.48-12.56C797.36-12.56 792.72-13.60 792.72-19.12L778.88-19.12C778.88-4.88 791.28 0.72 800.40 0.72C811.04 0.72 822.40-6 822.40-17.68C822.40-18.88 822.24-20.32 822.00-21.60C819.60-31.68 809.60-33.76 801.68-34.80C799.84-34.96 793.20-35.04 793.20-39.20C793.20-42.24 796.16-44.08 800.40-44.08C804.64-44.08 807.68-42.08 807.68-38.32" fill="#c0acff" stroke="none" stroke-width="none" transform="translate(-411.41666412353516,21.78455723063152)" style="fill: rgb(107, 62, 255);"></path></g></g>
</g>
</g>
</svg>