<!-- <svg xmlns="http://www.w3.org/2000/svg" style="margin:auto;background:rgba(241, 242, 243, 0);display:block;" width="909" height="155" preserveAspectRatio="xMidYMid">
<style type="text/css">
  text {
    text-anchor: middle; font-size: 80px; opacity: 0;
  }
  @keyframes blink-9e5f01bf-78bb-40f9-85cf-dc57438ad15b {
  0% { opacity: 1; }
  90.545% { opacity: 1; }
  91.455% { opacity: 0; }
  99.09% { opacity: 0; }
  100% { opacity: 1; }
}
</style>
<g style="transform-origin:454.5px 77.5px;transform:scale(1)">
<g transform="translate(454.5,77.5)">
  <g transform="translate(0,0)"><g class="path" style="opacity: 1; transform-origin: -393.217px -6.21544px 0px; animation: 1s linear -0.933333s infinite normal forwards running blink-9e5f01bf-78bb-40f9-85cf-dc57438ad15b;"><path d="M13.28-56L-0.40-56L-0.40 0L36.80 0L36.80-13.20L13.28-13.20" fill="#c0acff" stroke="none" stroke-width="none" transform="translate(-411.41666412353516,21.78455723063152)" style="fill: rgb(192, 172, 255);"></path></g><g class="path" style="opacity: 1; transform-origin: -342.657px -6.53544px 0px; animation: 1s linear -0.866667s infinite normal forwards running blink-9e5f01bf-78bb-40f9-85cf-dc57438ad15b;"><path d="M81.04 0L96.48 0L73.20-56.64L63.44-56.64L41.04 0L55.68 0L58.80-8.24L77.92-8.24zM68.40-34.08L72.72-21.92L73.04-20.96L63.76-20.96L64.24-22.24" fill="#c0acff" stroke="none" stroke-width="none" transform="translate(-411.41666412353516,21.78455723063152)" style="fill: rgb(107, 62, 255);"></path></g><g class="path" style="opacity: 1; transform-origin: -289.537px -6.21544px 0px; animation: 1s linear -0.8s infinite normal forwards running blink-9e5f01bf-78bb-40f9-85cf-dc57438ad15b;"><path d="M113.76 0L113.76-27.28L132.88 0L143.60 0L143.60-56L130.08-56L130.08-28L110.72-56L100.16-56L100.16 0" fill="#c0acff" stroke="none" stroke-width="none" transform="translate(-411.41666412353516,21.78455723063152)" style="fill: rgb(35, 0, 151);"></path></g><g class="path" style="opacity: 1; transform-origin: -233.017px -6.17544px 0px; animation: 1s linear -0.733333s infinite normal forwards running blink-9e5f01bf-78bb-40f9-85cf-dc57438ad15b;"><path d="M178.48-43.44C183.60-43.44 190.08-41.20 192.08-33.20L206.48-33.20C204.16-50.80 189.36-56.80 178.48-56.80C162.64-56.80 150.16-44.72 150.16-27.92C150.16-11.20 162.32 0.88 178.48 0.88C188.96 0.88 200.72-6.24 204.64-16.96C205.52-19.04 206.64-23.12 206.64-29.60L172.40-29.60L172.40-17.36L189.52-17.36C186.56-13.36 182.24-12.16 178.48-12.16C170.24-12.16 164.00-18.40 164.00-27.92C164.00-36.96 170.24-43.44 178.48-43.44" fill="#c0acff" stroke="none" stroke-width="none" transform="translate(-411.41666412353516,21.78455723063152)" style="fill: rgb(192, 172, 255);"></path></g><g class="path" style="opacity: 1; transform-origin: -175.977px -5.81506px 0px; animation: 1s linear -0.666667s infinite normal forwards running blink-9e5f01bf-78bb-40f9-85cf-dc57438ad15b;"><path d="M235.36 0.80C246.16 0.88 257.04-5.36 257.04-18L257.04-56L243.36-56L243.36-18.08C243.36-9.84 227.52-9.68 227.52-18.08L227.52-56L213.84-56L213.84-18C213.84-5.36 224.56 0.80 235.36 0.80" fill="#c0acff" stroke="none" stroke-width="none" transform="translate(-411.41666412353516,21.78455723063152)" style="fill: rgb(107, 62, 255);"></path></g><g class="path" style="opacity: 1; transform-origin: -123.537px -6.53544px 0px; animation: 1s linear -0.6s infinite normal forwards running blink-9e5f01bf-78bb-40f9-85cf-dc57438ad15b;"><path d="M300.16 0L315.60 0L292.32-56.64L282.56-56.64L260.16 0L274.80 0L277.92-8.24L297.04-8.24zM287.52-34.08L291.84-21.92L292.16-20.96L282.88-20.96L283.36-22.24" fill="#c0acff" stroke="none" stroke-width="none" transform="translate(-411.41666412353516,21.78455723063152)" style="fill: rgb(192, 172, 255);"></path></g><g class="path" style="opacity: 1; transform-origin: -67.8167px -6.17544px 0px; animation: 1s linear -0.533333s infinite normal forwards running blink-9e5f01bf-78bb-40f9-85cf-dc57438ad15b;"><path d="M343.68-43.44C348.80-43.44 355.28-41.20 357.28-33.20L371.68-33.20C369.36-50.80 354.56-56.80 343.68-56.80C327.84-56.80 315.36-44.72 315.36-27.92C315.36-11.20 327.52 0.88 343.68 0.88C354.16 0.88 365.92-6.24 369.84-16.96C370.72-19.04 371.84-23.12 371.84-29.60L337.60-29.60L337.60-17.36L354.72-17.36C351.76-13.36 347.44-12.16 343.68-12.16C335.44-12.16 329.20-18.40 329.20-27.92C329.20-36.96 335.44-43.44 343.68-43.44" fill="#c0acff" stroke="none" stroke-width="none" transform="translate(-411.41666412353516,21.78455723063152)" style="fill: rgb(107, 62, 255);"></path></g><g class="path" style="opacity: 1; transform-origin: -15.8167px -6.21544px 0px; animation: 1s linear -0.466667s infinite normal forwards running blink-9e5f01bf-78bb-40f9-85cf-dc57438ad15b;"><path d="M390.88-21.36L413.52-21.36L413.52-34.64L390.88-34.64L390.88-42.80L414-42.80L414-56L377.12-56L377.12 0L414.08 0L414.08-13.20L390.88-13.20" fill="#c0acff" stroke="none" stroke-width="none" transform="translate(-411.41666412353516,21.78455723063152)" style="fill: rgb(35, 0, 151);"></path></g><g class="path" style="opacity: 1; transform-origin: 29.2233px -6.25544px 0px; animation: 1s linear -0.4s infinite normal forwards running blink-9e5f01bf-78bb-40f9-85cf-dc57438ad15b;"><path d="M461.44-38.32C461.44-51.20 450.64-56.80 440.64-56.80C428.72-56.80 418.64-49.44 419.28-37.12L419.28-37.20C420.32-24.32 431.04-22.32 440.08-21.44C442.16-21.20 448.56-21.04 448.56-17.04C448.56-13.84 444.96-12.56 440.48-12.56C437.36-12.56 432.72-13.60 432.72-19.12L418.88-19.12C418.88-4.88 431.28 0.72 440.40 0.72C451.04 0.72 462.40-6 462.40-17.68C462.40-18.88 462.24-20.32 462-21.60C459.60-31.68 449.60-33.76 441.68-34.80C439.84-34.96 433.20-35.04 433.20-39.20C433.20-42.24 436.16-44.08 440.40-44.08C444.64-44.08 447.68-42.08 447.68-38.32" fill="#c0acff" stroke="none" stroke-width="none" transform="translate(-411.41666412353516,21.78455723063152)" style="fill: rgb(192, 172, 255);"></path></g><g class="path" style="opacity: 1; transform-origin: 100.463px -6.29544px 0px; animation: 1s linear -0.333333s infinite normal forwards running blink-9e5f01bf-78bb-40f9-85cf-dc57438ad15b;"><path d="M522.48-29.36L520-26L516.96-29.04C521.28-32 524.48-35.76 524.48-42.24C524.48-50.88 516.96-56.88 509.04-56.88C500.48-56.88 492.40-51.28 492.40-41.68C492.40-37.68 493.76-34.72 495.68-31.92C491.12-28.56 487.52-24.48 487.52-17.36C487.52-6.24 496 0.72 506.56 0.72C512.88 0.72 516.80-0.96 520.56-4.64L524.48 0.08L536.24 0.08L536.24-7.68L529.04-15.92L533.84-22.08zM512.40-14.48C509.36-11.12 504.64-10.96 502.24-13.68C499.20-17.04 501.76-20.64 504.48-22.72zM511.68-42.48C511.60-40.48 509.84-38.80 507.60-37.28C506-39.12 504.96-40.48 504.96-42C504.88-46.72 511.84-46.32 511.68-42.48" fill="#c0acff" stroke="none" stroke-width="none" transform="translate(-411.41666412353516,21.78455723063152)" style="fill: rgb(107, 62, 255);"></path></g><g class="path" style="opacity: 1; transform-origin: 172.103px -6.21544px 0px; animation: 1s linear -0.266667s infinite normal forwards running blink-9e5f01bf-78bb-40f9-85cf-dc57438ad15b;"><path d="M590.40 0L590.40-43.20L605.44-43.20L605.44-56L561.60-56L561.60-43.20L576.72-43.20L576.72 0" fill="#c0acff" stroke="none" stroke-width="none" transform="translate(-411.41666412353516,21.78455723063152)" style="fill: rgb(192, 172, 255);"></path></g><g class="path" style="opacity: 1; transform-origin: 226.303px -6.25544px 0px; animation: 1s linear -0.2s infinite normal forwards running blink-9e5f01bf-78bb-40f9-85cf-dc57438ad15b;"><path d="M608.72-27.92C608.72-11.44 621.68 0.80 637.68 0.80C653.68 0.80 666.72-11.68 666.72-27.92C666.72-44.40 653.68-56.88 637.68-56.88C621.68-56.88 608.72-44.40 608.72-27.92zM622.32-27.92C622.32-49.12 652.96-49.04 652.96-27.92C652.96-6.96 622.32-6.80 622.32-27.92" fill="#c0acff" stroke="none" stroke-width="none" transform="translate(-411.41666412353516,21.78455723063152)" style="fill: rgb(107, 62, 255);"></path></g><g class="path" style="opacity: 1; transform-origin: 290.143px -6.25544px 0px; animation: 1s linear -0.133333s infinite normal forwards running blink-9e5f01bf-78bb-40f9-85cf-dc57438ad15b;"><path d="M672.56-27.92C672.56-11.44 685.52 0.80 701.52 0.80C717.52 0.80 730.56-11.68 730.56-27.92C730.56-44.40 717.52-56.88 701.52-56.88C685.52-56.88 672.56-44.40 672.56-27.92zM686.16-27.92C686.16-49.12 716.80-49.04 716.80-27.92C716.80-6.96 686.16-6.80 686.16-27.92" fill="#c0acff" stroke="none" stroke-width="none" transform="translate(-411.41666412353516,21.78455723063152)" style="fill: rgb(35, 0, 151);"></path></g><g class="path" style="opacity: 1; transform-origin: 344.543px -6.21544px 0px; animation: 1s linear -0.0666667s infinite normal forwards running blink-9e5f01bf-78bb-40f9-85cf-dc57438ad15b;"><path d="M751.04-56L737.36-56L737.36 0L774.56 0L774.56-13.20L751.04-13.20" fill="#c0acff" stroke="none" stroke-width="none" transform="translate(-411.41666412353516,21.78455723063152)" style="fill: rgb(192, 172, 255);"></path></g><g class="path" style="opacity: 1; transform-origin: 389.223px -6.25544px 0px; animation: 1s linear 0s infinite normal forwards running blink-9e5f01bf-78bb-40f9-85cf-dc57438ad15b;"><path d="M821.44-38.32C821.44-51.20 810.64-56.80 800.64-56.80C788.72-56.80 778.64-49.44 779.28-37.12L779.28-37.20C780.32-24.32 791.04-22.32 800.08-21.44C802.16-21.20 808.56-21.04 808.56-17.04C808.56-13.84 804.96-12.56 800.48-12.56C797.36-12.56 792.72-13.60 792.72-19.12L778.88-19.12C778.88-4.88 791.28 0.72 800.40 0.72C811.04 0.72 822.40-6 822.40-17.68C822.40-18.88 822.24-20.32 822.00-21.60C819.60-31.68 809.60-33.76 801.68-34.80C799.84-34.96 793.20-35.04 793.20-39.20C793.20-42.24 796.16-44.08 800.40-44.08C804.64-44.08 807.68-42.08 807.68-38.32" fill="#c0acff" stroke="none" stroke-width="none" transform="translate(-411.41666412353516,21.78455723063152)" style="fill: rgb(107, 62, 255);"></path></g></g>
</g>
</g>
</svg> -->

<svg xmlns="http://www.w3.org/2000/svg" style="margin:auto;background:rgba(241, 242, 243, 0);display:block;" width="721" height="250" preserveAspectRatio="xMidYMid">
<style type="text/css">
  text {
    text-anchor: middle; font-size: 54px; opacity: 0;
  }
  
  @keyframes fade-7b437d6e-4c76-4860-b2da-713096091887
{
  0% {
    animation-timing-function: cubic-bezier(0.2057,0.573,0.3723,0.9184);
    opacity: 1;
  }
  100% {
    opacity: 0;
  }
}
  
</style>
<g style="transform-origin:360.5px 125px;transform:scale(1)">
<g transform="translate(360.5,125)">
  <g transform="translate(0,0)"><g class="path" style="opacity: 1; transform-origin: -286.85px -3.94336px; animation: 2.7027s linear -1.94234s infinite normal forwards running fade-7b437d6e-4c76-4860-b2da-713096091887;"><path d="M32.67 0L32.67-9.13L11.77-9.13L11.77-36.18L1.62-36.18L1.62 0" fill="#fc880f" stroke="none" stroke-width="none" transform="translate(-303.9949951171875,14.146641113281252)" style="fill: rgb(252, 136, 15);"></path></g><g class="path" style="opacity: 1; transform-origin: -247.89px -3.94336px; animation: 2.7027s linear -1.8036s infinite normal forwards running fade-7b437d6e-4c76-4860-b2da-713096091887;"><path d="M44.60 0L47.41-6.70L64.58-6.70L67.34 0L79.00 0L63.34-36.18L48.82-36.18L33.21 0zM53.35-20.90L55.67-27L56.38-27L58.75-20.90L60.86-15.82L51.25-15.82" fill="#fc880f" stroke="none" stroke-width="none" transform="translate(-303.9949951171875,14.146641113281252)" style="fill: rgb(252, 136, 15);"></path></g><g class="path" style="opacity: 1; transform-origin: -205.66px -3.94336px; animation: 2.7027s linear -1.66486s infinite normal forwards running fade-7b437d6e-4c76-4860-b2da-713096091887;"><path d="M90.23 0L90.23-14.15L89.80-21.06L90.50-21.06L95.09-13.93L105.79 0L116.59 0L116.59-36.18L106.43-36.18L106.43-22.19L106.92-14.31L106.22-14.31L100.93-22.63L90.88-36.18L80.08-36.18L80.08 0" fill="#fc880f" stroke="none" stroke-width="none" transform="translate(-303.9949951171875,14.146641113281252)" style="fill: rgb(252, 136, 15);"></path></g><g class="path" style="opacity: 1; transform-origin: -164.43px -3.94336px; animation: 2.7027s linear -1.52613s infinite normal forwards running fade-7b437d6e-4c76-4860-b2da-713096091887;"><path d="M137.32 0.54C145.80 0.54 148.88-3.51 149.85-7.72L150.39-7.72L150.39 0L159.84 0L159.84-19.76L138.46-19.76L138.46-12.31L149.58-12.31C149.09-9.56 146.93-9.18 139.43-9.18C132.08-9.18 130.09-10.91 130.09-18.09C130.09-25.27 132.19-27 139.97-27C146.39-27 148.45-25.70 148.45-22.36L148.45-21.98L159.79-21.98L159.79-22.36C159.79-31.32 152.50-36.72 140.24-36.72C127.06-36.72 119.29-29.38 119.29-18.09C119.29-6.80 125.93 0.54 137.32 0.54" fill="#fc880f" stroke="none" stroke-width="none" transform="translate(-303.9949951171875,14.146641113281252)" style="fill: rgb(252, 136, 15);"></path></g><g class="path" style="opacity: 1; transform-origin: -122.88px -3.67336px; animation: 2.7027s linear -1.38739s infinite normal forwards running fade-7b437d6e-4c76-4860-b2da-713096091887;"><path d="M181.12 0.54C193.75 0.54 199.58-5.56 199.58-15.17L199.58-36.18L189.43-36.18L189.43-15.98C189.43-10.85 187.97-9.29 181.12-9.29C174.26-9.29 172.80-10.85 172.80-15.98L172.80-36.18L162.65-36.18L162.65-15.17C162.65-5.56 168.48 0.54 181.12 0.54" fill="#fc880f" stroke="none" stroke-width="none" transform="translate(-303.9949951171875,14.146641113281252)" style="fill: rgb(252, 136, 15);"></path></g><g class="path" style="opacity: 1; transform-origin: -80.65px -3.94336px; animation: 2.7027s linear -1.24865s infinite normal forwards running fade-7b437d6e-4c76-4860-b2da-713096091887;"><path d="M211.84 0L214.65-6.70L231.82-6.70L234.58 0L246.24 0L230.58-36.18L216.05-36.18L200.45 0zM220.59-20.90L222.91-27L223.61-27L225.99-20.90L228.10-15.82L218.48-15.82" fill="#fc880f" stroke="none" stroke-width="none" transform="translate(-303.9949951171875,14.146641113281252)" style="fill: rgb(252, 136, 15);"></path></g><g class="path" style="opacity: 1; transform-origin: -36.94px -3.94336px; animation: 2.7027s linear -1.10991s infinite normal forwards running fade-7b437d6e-4c76-4860-b2da-713096091887;"><path d="M264.82 0.54C273.29 0.54 276.37-3.51 277.34-7.72L277.88-7.72L277.88 0L287.33 0L287.33-19.76L265.95-19.76L265.95-12.31L277.07-12.31C276.59-9.56 274.43-9.18 266.92-9.18C259.58-9.18 257.58-10.91 257.58-18.09C257.58-25.27 259.69-27 267.46-27C273.89-27 275.94-25.70 275.94-22.36L275.94-21.98L287.28-21.98L287.28-22.36C287.28-31.32 279.99-36.72 267.73-36.72C254.56-36.72 246.78-29.38 246.78-18.09C246.78-6.80 253.42 0.54 264.82 0.54" fill="#fc880f" stroke="none" stroke-width="none" transform="translate(-303.9949951171875,14.146641113281252)" style="fill: rgb(252, 136, 15);"></path></g><g class="path" style="opacity: 1; transform-origin: 2.42999px -3.94336px; animation: 2.7027s linear -0.971171s infinite normal forwards running fade-7b437d6e-4c76-4860-b2da-713096091887;"><path d="M322.49 0L322.49-9.13L300.51-9.13L300.51-13.66L321.68-13.66L321.68-22.73L300.51-22.73L300.51-27.05L322.49-27.05L322.49-36.18L290.36-36.18L290.36 0" fill="#fc880f" stroke="none" stroke-width="none" transform="translate(-303.9949951171875,14.146641113281252)" style="fill: rgb(252, 136, 15);"></path></g><g class="path" style="opacity: 1; transform-origin: 38.205px -3.94336px; animation: 2.7027s linear -0.832432s infinite normal forwards running fade-7b437d6e-4c76-4860-b2da-713096091887;"><path d="M342.90 0.54C355.10 0.54 359.86-4.97 359.86-11.18C359.86-15.82 357.48-20.36 348.62-21.65L337.28-23.33C335.34-23.60 334.69-24.14 334.69-25.27C334.69-26.84 335.83-27.54 341.01-27.54C347.81-27.54 348.95-26.68 348.95-24.08L348.95-23.27L359.10-23.27L359.10-23.60C359.10-31.70 353.59-36.72 342.09-36.72C329.02-36.72 324.54-30.67 324.54-24.89C324.54-19.06 327.94-15.44 334.69-14.53L346.03-13.01C349.00-12.64 349.70-12.10 349.70-10.80C349.70-9.18 349.06-8.69 342.90-8.69C336.10-8.69 335.23-9.34 335.23-11.77L335.23-12.91L325.08-12.91L325.08-12.58C325.08-3.40 331.83 0.54 342.90 0.54" fill="#fc880f" stroke="none" stroke-width="none" transform="translate(-303.9949951171875,14.146641113281252)" style="fill: rgb(252, 136, 15);"></path></g><g class="path" style="opacity: 1; transform-origin: 85.105px -4.05336px; animation: 2.7027s linear -0.693694s infinite normal forwards running fade-7b437d6e-4c76-4860-b2da-713096091887;"><path d="M386.59 0.54C399.82 0.54 403.65-4.91 403.65-13.39L403.65-14.31L408.89-14.31L408.89-22.63L403.65-22.63L403.65-27.22L393.66-27.22L393.66-22.63L384.26-22.63C382.27-22.63 381.13-22.90 381.13-25.11C381.13-27.43 382.21-27.70 384.53-27.70L391.66-27.70L391.66-36.94L385.99-36.94C376.49-36.94 370.98-34.07 370.98-27.22C370.98-23.22 373.41-19.98 378.38-19.55L378.38-18.85C373.03-18.47 369.31-15.71 369.31-10.15C369.31-2.65 375.52 0.54 386.59 0.54zM386.96-8.69C380.86-8.69 379.62-9.34 379.62-11.50C379.62-13.88 380.86-14.31 382.91-14.31L393.66-14.31L393.66-12.85C393.66-9.02 392.85-8.69 386.96-8.69" fill="#fc880f" stroke="none" stroke-width="none" transform="translate(-303.9949951171875,14.146641113281252)" style="fill: rgb(252, 136, 15);"></path></g><g class="path" style="opacity: 1; transform-origin: 132.19px -3.94336px; animation: 2.7027s linear -0.554955s infinite normal forwards running fade-7b437d6e-4c76-4860-b2da-713096091887;"><path d="M441.29 0L441.29-27.05L454.03-27.05L454.03-36.18L418.34-36.18L418.34-27.05L431.14-27.05L431.14 0" fill="#fc880f" stroke="none" stroke-width="none" transform="translate(-303.9949951171875,14.146641113281252)" style="fill: rgb(252, 136, 15);"></path></g><g class="path" style="opacity: 1; transform-origin: 172.07px -3.94336px; animation: 2.7027s linear -0.416216s infinite normal forwards running fade-7b437d6e-4c76-4860-b2da-713096091887;"><path d="M475.96 0.54C488.86 0.54 496.21-6.80 496.21-18.09C496.21-29.38 488.86-36.72 475.96-36.72C463.37-36.72 455.92-29.38 455.92-18.09C455.92-6.80 463.37 0.54 475.96 0.54zM475.96-9.18C468.61-9.18 466.72-10.91 466.72-18.09C466.72-25.27 468.61-27 475.96-27C483.30-27 485.41-25.27 485.41-18.09C485.41-10.91 483.30-9.18 475.96-9.18" fill="#fc880f" stroke="none" stroke-width="none" transform="translate(-303.9949951171875,14.146641113281252)" style="fill: rgb(252, 136, 15);"></path></g><g class="path" style="opacity: 1; transform-origin: 214.515px -3.94336px; animation: 2.7027s linear -0.277477s infinite normal forwards running fade-7b437d6e-4c76-4860-b2da-713096091887;"><path d="M518.40 0.54C531.31 0.54 538.65-6.80 538.65-18.09C538.65-29.38 531.31-36.72 518.40-36.72C505.82-36.72 498.37-29.38 498.37-18.09C498.37-6.80 505.82 0.54 518.40 0.54zM518.40-9.18C511.06-9.18 509.17-10.91 509.17-18.09C509.17-25.27 511.06-27 518.40-27C525.74-27 527.85-25.27 527.85-18.09C527.85-10.91 525.74-9.18 518.40-9.18" fill="#fc880f" stroke="none" stroke-width="none" transform="translate(-303.9949951171875,14.146641113281252)" style="fill: rgb(252, 136, 15);"></path></g><g class="path" style="opacity: 1; transform-origin: 252.88px -3.94336px; animation: 2.7027s linear -0.138739s infinite normal forwards running fade-7b437d6e-4c76-4860-b2da-713096091887;"><path d="M572.40 0L572.40-9.13L551.50-9.13L551.50-36.18L541.35-36.18L541.35 0" fill="#fc880f" stroke="none" stroke-width="none" transform="translate(-303.9949951171875,14.146641113281252)" style="fill: rgb(252, 136, 15);"></path></g><g class="path" style="opacity: 1; transform-origin: 287.955px -3.94336px; animation: 2.7027s linear 0s infinite normal forwards running fade-7b437d6e-4c76-4860-b2da-713096091887;"><path d="M592.65 0.54C604.85 0.54 609.61-4.97 609.61-11.18C609.61-15.82 607.23-20.36 598.37-21.65L587.03-23.33C585.09-23.60 584.44-24.14 584.44-25.27C584.44-26.84 585.58-27.54 590.76-27.54C597.56-27.54 598.70-26.68 598.70-24.08L598.70-23.27L608.85-23.27L608.85-23.60C608.85-31.70 603.34-36.72 591.84-36.72C578.77-36.72 574.29-30.67 574.29-24.89C574.29-19.06 577.69-15.44 584.44-14.53L595.78-13.01C598.75-12.64 599.45-12.10 599.45-10.80C599.45-9.18 598.81-8.69 592.65-8.69C585.85-8.69 584.98-9.34 584.98-11.77L584.98-12.91L574.83-12.91L574.83-12.58C574.83-3.40 581.58 0.54 592.65 0.54" fill="#fc880f" stroke="none" stroke-width="none" transform="translate(-303.9949951171875,14.146641113281252)" style="fill: rgb(252, 136, 15);"></path></g></g>
</g>
</g>
</svg>
