<!-- <svg xmlns="http://www.w3.org/2000/svg" style="margin:auto;background:rgba(241, 242, 243, 0);display:block;" width="909" height="155" preserveAspectRatio="xMidYMid">
<style type="text/css">
  text {
    text-anchor: middle; font-size: 80px; opacity: 0;
  }
  @keyframes blink-9e5f01bf-78bb-40f9-85cf-dc57438ad15b {
  0% { opacity: 1; }
  90.545% { opacity: 1; }
  91.455% { opacity: 0; }
  99.09% { opacity: 0; }
  100% { opacity: 1; }
}
</style>
<g style="transform-origin:454.5px 77.5px;transform:scale(1)">
<g transform="translate(454.5,77.5)">
  <g transform="translate(0,0)"><g class="path" style="opacity: 1; transform-origin: -263.302px -6.27877px 0px; animation: 1s linear -0.916667s infinite normal forwards running blink-9e5f01bf-78bb-40f9-85cf-dc57438ad15b;"><path d="M15.44-18.96L27.12 0L41.68 0L41.68-2.56L29.68-20.32C46.88-28.56 43.60-56 21.36-56L-0.40-56L-0.40 0L13.20 0L13.20-18.96zM13.20-42.88L21.04-42.88C29.36-42.88 29.28-31.36 21.04-31.36L13.20-31.36" fill="#c0acff" stroke="none" stroke-width="none" transform="translate(-283.941650390625,21.72122563680013)" style="fill: rgb(192, 172, 255);"></path></g><g class="path" style="opacity: 1; transform-origin: -218.742px -6.27877px 0px; animation: 1s linear -0.833333s infinite normal forwards running blink-9e5f01bf-78bb-40f9-85cf-dc57438ad15b;"><path d="M60.48-21.36L83.12-21.36L83.12-34.64L60.48-34.64L60.48-42.80L83.60-42.80L83.60-56L46.72-56L46.72 0L83.68 0L83.68-13.20L60.48-13.20" fill="#c0acff" stroke="none" stroke-width="none" transform="translate(-283.941650390625,21.72122563680013)" style="fill: rgb(107, 62, 255);"></path></g><g class="path" style="opacity: 1; transform-origin: -174.437px -6.27877px 0px; animation: 1s linear -0.75s infinite normal forwards running blink-9e5f01bf-78bb-40f9-85cf-dc57438ad15b;"><path d="M88.96-56L88.96 0L102.64 0L102.64-16.64L110.40-16.64C136.56-16.64 136.64-56 110.40-56zM102.64-29.52L102.64-42.72L110.40-42.72C118.88-42.72 118.88-29.52 110.40-29.52" fill="#c0acff" stroke="none" stroke-width="none" transform="translate(-283.941650390625,21.72122563680013)" style="fill: rgb(35, 0, 151);"></path></g><g class="path" style="opacity: 1; transform-origin: -119.182px -6.31878px 0px; animation: 1s linear -0.666667s infinite normal forwards running blink-9e5f01bf-78bb-40f9-85cf-dc57438ad15b;"><path d="M135.76-27.92C135.76-11.44 148.72 0.80 164.72 0.80C180.72 0.80 193.76-11.68 193.76-27.92C193.76-44.40 180.72-56.88 164.72-56.88C148.72-56.88 135.76-44.40 135.76-27.92zM149.36-27.92C149.36-49.12 180-49.04 180-27.92C180-6.96 149.36-6.80 149.36-27.92" fill="#c0acff" stroke="none" stroke-width="none" transform="translate(-283.941650390625,21.72122563680013)" style="fill: rgb(192, 172, 255);"></path></g><g class="path" style="opacity: 1; transform-origin: -63.9417px -6.31878px 0px; animation: 1s linear -0.583333s infinite normal forwards running blink-9e5f01bf-78bb-40f9-85cf-dc57438ad15b;"><path d="M240.80-38.32C240.80-51.20 230-56.80 220-56.80C208.08-56.80 198-49.44 198.64-37.12L198.64-37.20C199.68-24.32 210.40-22.32 219.44-21.44C221.52-21.20 227.92-21.04 227.92-17.04C227.92-13.84 224.32-12.56 219.84-12.56C216.72-12.56 212.08-13.60 212.08-19.12L198.24-19.12C198.24-4.88 210.64 0.72 219.76 0.72C230.40 0.72 241.76-6 241.76-17.68C241.76-18.88 241.60-20.32 241.36-21.60C238.96-31.68 228.96-33.76 221.04-34.80C219.20-34.96 212.56-35.04 212.56-39.20C212.56-42.24 215.52-44.08 219.76-44.08C224-44.08 227.04-42.08 227.04-38.32" fill="#c0acff" stroke="none" stroke-width="none" transform="translate(-283.941650390625,21.72122563680013)" style="fill: rgb(107, 62, 255);"></path></g><g class="path" style="opacity: 1; transform-origin: -19.9017px -6.27877px 0px; animation: 1s linear -0.5s infinite normal forwards running blink-9e5f01bf-78bb-40f9-85cf-dc57438ad15b;"><path d="M280.16-56L247.92-56L247.92-43.52L257.20-43.52L257.20-12.24L247.92-12.24L247.92 0L280.16 0L280.16-12.24L270.88-12.24L270.88-43.52L280.16-43.52" fill="#c0acff" stroke="none" stroke-width="none" transform="translate(-283.941650390625,21.72122563680013)" style="fill: rgb(192, 172, 255);"></path></g><g class="path" style="opacity: 1; transform-origin: 23.2583px -6.27877px 0px; animation: 1s linear -0.416667s infinite normal forwards running blink-9e5f01bf-78bb-40f9-85cf-dc57438ad15b;"><path d="M314.08 0L314.08-43.20L329.12-43.20L329.12-56L285.28-56L285.28-43.20L300.40-43.20L300.40 0" fill="#c0acff" stroke="none" stroke-width="none" transform="translate(-283.941650390625,21.72122563680013)" style="fill: rgb(107, 62, 255);"></path></g><g class="path" style="opacity: 1; transform-origin: 77.4583px -6.31878px 0px; animation: 1s linear -0.333333s infinite normal forwards running blink-9e5f01bf-78bb-40f9-85cf-dc57438ad15b;"><path d="M332.40-27.92C332.40-11.44 345.36 0.80 361.36 0.80C377.36 0.80 390.40-11.68 390.40-27.92C390.40-44.40 377.36-56.88 361.36-56.88C345.36-56.88 332.40-44.40 332.40-27.92zM346.00-27.92C346.00-49.12 376.64-49.04 376.64-27.92C376.64-6.96 346.00-6.80 346.00-27.92" fill="#c0acff" stroke="none" stroke-width="none" transform="translate(-283.941650390625,21.72122563680013)" style="fill: rgb(35, 0, 151);"></path></g><g class="path" style="opacity: 1; transform-origin: 134.298px -6.27877px 0px; animation: 1s linear -0.25s infinite normal forwards running blink-9e5f01bf-78bb-40f9-85cf-dc57438ad15b;"><path d="M413.04-18.96L424.72 0L439.28 0L439.28-2.56L427.28-20.32C444.48-28.56 441.20-56 418.96-56L397.20-56L397.20 0L410.80 0L410.80-18.96zM410.80-42.88L418.64-42.88C426.96-42.88 426.88-31.36 418.64-31.36L410.80-31.36" fill="#c0acff" stroke="none" stroke-width="none" transform="translate(-283.941650390625,21.72122563680013)" style="fill: rgb(192, 172, 255);"></path></g><g class="path" style="opacity: 1; transform-origin: 176.738px -6.27877px 0px; animation: 1s linear -0.166667s infinite normal forwards running blink-9e5f01bf-78bb-40f9-85cf-dc57438ad15b;"><path d="M476.80-56L444.56-56L444.56-43.52L453.84-43.52L453.84-12.24L444.56-12.24L444.56 0L476.80 0L476.80-12.24L467.52-12.24L467.52-43.52L476.80-43.52" fill="#c0acff" stroke="none" stroke-width="none" transform="translate(-283.941650390625,21.72122563680013)" style="fill: rgb(107, 62, 255);"></path></g><g class="path" style="opacity: 1; transform-origin: 216.698px -6.27877px 0px; animation: 1s linear -0.0833333s infinite normal forwards running blink-9e5f01bf-78bb-40f9-85cf-dc57438ad15b;"><path d="M495.92-21.36L518.56-21.36L518.56-34.64L495.92-34.64L495.92-42.80L519.04-42.80L519.04-56L482.16-56L482.16 0L519.12 0L519.12-13.20L495.92-13.20" fill="#c0acff" stroke="none" stroke-width="none" transform="translate(-283.941650390625,21.72122563680013)" style="fill: rgb(192, 172, 255);"></path></g><g class="path" style="opacity: 1; transform-origin: 261.738px -6.31878px 0px; animation: 1s linear 0s infinite normal forwards running blink-9e5f01bf-78bb-40f9-85cf-dc57438ad15b;"><path d="M566.48-38.32C566.48-51.20 555.68-56.80 545.68-56.80C533.76-56.80 523.68-49.44 524.32-37.12L524.32-37.20C525.36-24.32 536.08-22.32 545.12-21.44C547.20-21.20 553.60-21.04 553.60-17.04C553.60-13.84 550.00-12.56 545.52-12.56C542.40-12.56 537.76-13.60 537.76-19.12L523.92-19.12C523.92-4.88 536.32 0.72 545.44 0.72C556.08 0.72 567.44-6 567.44-17.68C567.44-18.88 567.28-20.32 567.04-21.60C564.64-31.68 554.64-33.76 546.72-34.80C544.88-34.96 538.24-35.04 538.24-39.20C538.24-42.24 541.20-44.08 545.44-44.08C549.68-44.08 552.72-42.08 552.72-38.32" fill="#c0acff" stroke="none" stroke-width="none" transform="translate(-283.941650390625,21.72122563680013)" style="fill: rgb(107, 62, 255);"></path></g></g>
</g>
</g>
</svg> -->

<svg xmlns="http://www.w3.org/2000/svg" style="margin:auto;background:#f1f2f3;display:block;" width="721" height="250" preserveAspectRatio="xMidYMid">
<style type="text/css">
  text {
    text-anchor: middle; font-size: 54px; opacity: 0;
  }
  
  @keyframes fade-7b437d6e-4c76-4860-b2da-713096091887
{
  0% {
    animation-timing-function: cubic-bezier(0.2057,0.573,0.3723,0.9184);
    opacity: 1;
  }
  100% {
    opacity: 0;
  }
}
  
</style>
<g style="transform-origin:360.5px 125px;transform:scale(1)">
<g transform="translate(360.5,125)">
  <g transform="translate(0,0)"><g class="path" style="opacity: 1; transform-origin: -178.625px -4.17807px; animation: 2.7027s linear -1.90766s infinite normal forwards running fade-7b437d6e-4c76-4860-b2da-713096091887;"><path d="M36.49 0L30.69 0L21.04-15.42L9.47-15.42L9.47 0L4.43 0L4.43-37.15L21.91-37.15L21.91-37.15Q28.19-37.15 31.60-34.34L31.60-34.34L31.60-34.34Q35.02-31.54 35.02-26.53L35.02-26.53L35.02-26.53Q35.02-22.39 32.60-19.56L32.60-19.56L32.60-19.56Q30.19-16.74 25.95-16.00L25.95-16.00L36.49 0zM29.95-26.47L29.95-26.47L29.95-26.47Q29.95-29.72 27.75-31.42L27.75-31.42L27.75-31.42Q25.55-33.12 21.41-33.12L21.41-33.12L9.47-33.12L9.47-19.41L21.62-19.41L21.62-19.41Q25.60-19.41 27.78-21.27L27.78-21.27L27.78-21.27Q29.95-23.12 29.95-26.47" fill="#fc880f" stroke="none" stroke-width="none" transform="translate(-199.08499145507812,14.396929931640624)" style="fill: rgb(252, 136, 15);"></path></g><g class="path" style="opacity: 1; transform-origin: -141.025px -4.17807px; animation: 2.7027s linear -1.73423s infinite normal forwards running fade-7b437d6e-4c76-4860-b2da-713096091887;"><path d="M72.69 0L43.43 0L43.43-37.15L71.61-37.15L71.61-33.04L48.46-33.04L48.46-21.12L70.03-21.12L70.03-17.06L48.46-17.06L48.46-4.11L72.69-4.11L72.69 0" fill="#fc880f" stroke="none" stroke-width="none" transform="translate(-199.08499145507812,14.396929931640624)" style="fill: rgb(252, 136, 15);"></path></g><g class="path" style="opacity: 1; transform-origin: -105.275px -4.17807px; animation: 2.7027s linear -1.56081s infinite normal forwards running fade-7b437d6e-4c76-4860-b2da-713096091887;"><path d="M108.18-25.97L108.18-25.97L108.18-25.97Q108.18-20.70 104.74-17.59L104.74-17.59L104.74-17.59Q101.30-14.48 95.40-14.48L95.40-14.48L84.48-14.48L84.48 0L79.44 0L79.44-37.15L95.08-37.15L95.08-37.15Q101.33-37.15 104.76-34.22L104.76-34.22L104.76-34.22Q108.18-31.30 108.18-25.97zM103.12-25.92L103.12-25.92L103.12-25.92Q103.12-33.12 94.47-33.12L94.47-33.12L84.48-33.12L84.48-18.46L94.68-18.46L94.68-18.46Q103.12-18.46 103.12-25.92" fill="#fc880f" stroke="none" stroke-width="none" transform="translate(-199.08499145507812,14.396929931640624)" style="fill: rgb(252, 136, 15);"></path></g><g class="path" style="opacity: 1; transform-origin: -67.065px -4.19307px; animation: 2.7027s linear -1.38739s infinite normal forwards running fade-7b437d6e-4c76-4860-b2da-713096091887;"><path d="M150.45-18.75L150.45-18.75L150.45-18.75Q150.45-12.92 148.22-8.54L148.22-8.54L148.22-8.54Q146.00-4.17 141.83-1.82L141.83-1.82L141.83-1.82Q137.66 0.53 131.99 0.53L131.99 0.53L131.99 0.53Q126.27 0.53 122.12-1.79L122.12-1.79L122.12-1.79Q117.97-4.11 115.78-8.50L115.78-8.50L115.78-8.50Q113.59-12.89 113.59-18.75L113.59-18.75L113.59-18.75Q113.59-27.66 118.47-32.68L118.47-32.68L118.47-32.68Q123.35-37.71 132.05-37.71L132.05-37.71L132.05-37.71Q137.72-37.71 141.88-35.45L141.88-35.45L141.88-35.45Q146.05-33.20 148.25-28.90L148.25-28.90L148.25-28.90Q150.45-24.60 150.45-18.75zM145.31-18.75L145.31-18.75L145.31-18.75Q145.31-25.68 141.84-29.64L141.84-29.64L141.84-29.64Q138.38-33.59 132.05-33.59L132.05-33.59L132.05-33.59Q125.67-33.59 122.19-29.69L122.19-29.69L122.19-29.69Q118.71-25.79 118.71-18.75L118.71-18.75L118.71-18.75Q118.71-11.76 122.23-7.66L122.23-7.66L122.23-7.66Q125.75-3.56 131.99-3.56L131.99-3.56L131.99-3.56Q138.43-3.56 141.87-7.53L141.87-7.53L141.87-7.53Q145.31-11.50 145.31-18.75" fill="#fc880f" stroke="none" stroke-width="none" transform="translate(-199.08499145507812,14.396929931640624)" style="fill: rgb(252, 136, 15);"></path></g><g class="path" style="opacity: 1; transform-origin: -28.055px -4.19307px; animation: 2.7027s linear -1.21396s infinite normal forwards running fade-7b437d6e-4c76-4860-b2da-713096091887;"><path d="M186.57-10.26L186.57-10.26L186.57-10.26Q186.57-5.12 182.55-2.29L182.55-2.29L182.55-2.29Q178.53 0.53 171.23 0.53L171.23 0.53L171.23 0.53Q157.65 0.53 155.49-8.91L155.49-8.91L160.37-9.89L160.37-9.89Q161.21-6.54 163.95-4.97L163.95-4.97L163.95-4.97Q166.69-3.40 171.41-3.40L171.41-3.40L171.41-3.40Q176.29-3.40 178.94-5.08L178.94-5.08L178.94-5.08Q181.59-6.75 181.59-9.99L181.59-9.99L181.59-9.99Q181.59-11.81 180.76-12.95L180.76-12.95L180.76-12.95Q179.93-14.08 178.43-14.82L178.43-14.82L178.43-14.82Q176.92-15.56 174.84-16.06L174.84-16.06L174.84-16.06Q172.76-16.56 170.23-17.14L170.23-17.14L170.23-17.14Q165.82-18.11 163.54-19.09L163.54-19.09L163.54-19.09Q161.26-20.07 159.94-21.27L159.94-21.27L159.94-21.27Q158.63-22.46 157.93-24.07L157.93-24.07L157.93-24.07Q157.23-25.68 157.23-27.76L157.23-27.76L157.23-27.76Q157.23-32.54 160.88-35.12L160.88-35.12L160.88-35.12Q164.53-37.71 171.33-37.71L171.33-37.71L171.33-37.71Q177.66-37.71 181.01-35.77L181.01-35.77L181.01-35.77Q184.36-33.83 185.70-29.16L185.70-29.16L180.75-28.29L180.75-28.29Q179.93-31.25 177.64-32.58L177.64-32.58L177.64-32.58Q175.34-33.91 171.28-33.91L171.28-33.91L171.28-33.91Q166.83-33.91 164.48-32.43L164.48-32.43L164.48-32.43Q162.13-30.96 162.13-28.03L162.13-28.03L162.13-28.03Q162.13-26.31 163.04-25.19L163.04-25.19L163.04-25.19Q163.95-24.07 165.67-23.30L165.67-23.30L165.67-23.30Q167.38-22.52 172.49-21.38L172.49-21.38L172.49-21.38Q174.21-20.99 175.91-20.58L175.91-20.58L175.91-20.58Q177.61-20.17 179.17-19.60L179.17-19.60L179.17-19.60Q180.72-19.04 182.08-18.27L182.08-18.27L182.08-18.27Q183.44-17.51 184.44-16.40L184.44-16.40L184.44-16.40Q185.44-15.29 186.01-13.79L186.01-13.79L186.01-13.79Q186.57-12.29 186.57-10.26" fill="#fc880f" stroke="none" stroke-width="none" transform="translate(-199.08499145507812,14.396929931640624)" style="fill: rgb(252, 136, 15);"></path></g><g class="path" style="opacity: 1; transform-origin: -2.52999px -4.17807px; animation: 2.7027s linear -1.04054s infinite normal forwards running fade-7b437d6e-4c76-4860-b2da-713096091887;"><path d="M199.07 0L194.04 0L194.04-37.15L199.07-37.15L199.07 0" fill="#fc880f" stroke="none" stroke-width="none" transform="translate(-199.08499145507812,14.396929931640624)" style="fill: rgb(252, 136, 15);"></path></g><g class="path" style="opacity: 1; transform-origin: 21.45px -4.17807px; animation: 2.7027s linear -0.867117s infinite normal forwards running fade-7b437d6e-4c76-4860-b2da-713096091887;"><path d="M235.80-33.04L223.04-33.04L223.04 0L218.03 0L218.03-33.04L205.27-33.04L205.27-37.15L235.80-37.15L235.80-33.04" fill="#fc880f" stroke="none" stroke-width="none" transform="translate(-199.08499145507812,14.396929931640624)" style="fill: rgb(252, 136, 15);"></path></g><g class="path" style="opacity: 1; transform-origin: 58.945px -4.19307px; animation: 2.7027s linear -0.693694s infinite normal forwards running fade-7b437d6e-4c76-4860-b2da-713096091887;"><path d="M276.46-18.75L276.46-18.75L276.46-18.75Q276.46-12.92 274.23-8.54L274.23-8.54L274.23-8.54Q272.00-4.17 267.84-1.82L267.84-1.82L267.84-1.82Q263.67 0.53 258.00 0.53L258.00 0.53L258.00 0.53Q252.28 0.53 248.13-1.79L248.13-1.79L248.13-1.79Q243.98-4.11 241.79-8.50L241.79-8.50L241.79-8.50Q239.60-12.89 239.60-18.75L239.60-18.75L239.60-18.75Q239.60-27.66 244.48-32.68L244.48-32.68L244.48-32.68Q249.35-37.71 258.06-37.71L258.06-37.71L258.06-37.71Q263.72-37.71 267.89-35.45L267.89-35.45L267.89-35.45Q272.06-33.20 274.26-28.90L274.26-28.90L274.26-28.90Q276.46-24.60 276.46-18.75zM271.32-18.75L271.32-18.75L271.32-18.75Q271.32-25.68 267.85-29.64L267.85-29.64L267.85-29.64Q264.38-33.59 258.06-33.59L258.06-33.59L258.06-33.59Q251.67-33.59 248.19-29.69L248.19-29.69L248.19-29.69Q244.71-25.79 244.71-18.75L244.71-18.75L244.71-18.75Q244.71-11.76 248.23-7.66L248.23-7.66L248.23-7.66Q251.75-3.56 258.00-3.56L258.00-3.56L258.00-3.56Q264.44-3.56 267.88-7.53L267.88-7.53L267.88-7.53Q271.32-11.50 271.32-18.75" fill="#fc880f" stroke="none" stroke-width="none" transform="translate(-199.08499145507812,14.396929931640624)" style="fill: rgb(252, 136, 15);"></path></g><g class="path" style="opacity: 1; transform-origin: 100.42px -4.17807px; animation: 2.7027s linear -0.52027s infinite normal forwards running fade-7b437d6e-4c76-4860-b2da-713096091887;"><path d="M315.54 0L309.74 0L300.08-15.42L288.51-15.42L288.51 0L283.47 0L283.47-37.15L300.96-37.15L300.96-37.15Q307.23-37.15 310.65-34.34L310.65-34.34L310.65-34.34Q314.06-31.54 314.06-26.53L314.06-26.53L314.06-26.53Q314.06-22.39 311.65-19.56L311.65-19.56L311.65-19.56Q309.23-16.74 304.99-16.00L304.99-16.00L315.54 0zM309.00-26.47L309.00-26.47L309.00-26.47Q309.00-29.72 306.80-31.42L306.80-31.42L306.80-31.42Q304.59-33.12 300.45-33.12L300.45-33.12L288.51-33.12L288.51-19.41L300.67-19.41L300.67-19.41Q304.65-19.41 306.82-21.27L306.82-21.27L306.82-21.27Q309.00-23.12 309.00-26.47" fill="#fc880f" stroke="none" stroke-width="none" transform="translate(-199.08499145507812,14.396929931640624)" style="fill: rgb(252, 136, 15);"></path></g><g class="path" style="opacity: 1; transform-origin: 126.455px -4.17807px; animation: 2.7027s linear -0.346847s infinite normal forwards running fade-7b437d6e-4c76-4860-b2da-713096091887;"><path d="M328.06 0L323.02 0L323.02-37.15L328.06-37.15L328.06 0" fill="#fc880f" stroke="none" stroke-width="none" transform="translate(-199.08499145507812,14.396929931640624)" style="fill: rgb(252, 136, 15);"></path></g><g class="path" style="opacity: 1; transform-origin: 153.02px -4.17807px; animation: 2.7027s linear -0.173423s infinite normal forwards running fade-7b437d6e-4c76-4860-b2da-713096091887;"><path d="M366.74 0L337.47 0L337.47-37.15L365.66-37.15L365.66-33.04L342.51-33.04L342.51-21.12L364.08-21.12L364.08-17.06L342.51-17.06L342.51-4.11L366.74-4.11L366.74 0" fill="#fc880f" stroke="none" stroke-width="none" transform="translate(-199.08499145507812,14.396929931640624)" style="fill: rgb(252, 136, 15);"></path></g><g class="path" style="opacity: 1; transform-origin: 187.97px -4.19307px; animation: 2.7027s linear 0s infinite normal forwards running fade-7b437d6e-4c76-4860-b2da-713096091887;"><path d="M402.60-10.26L402.60-10.26L402.60-10.26Q402.60-5.12 398.58-2.29L398.58-2.29L398.58-2.29Q394.56 0.53 387.25 0.53L387.25 0.53L387.25 0.53Q373.68 0.53 371.51-8.91L371.51-8.91L376.39-9.89L376.39-9.89Q377.24-6.54 379.98-4.97L379.98-4.97L379.98-4.97Q382.72-3.40 387.44-3.40L387.44-3.40L387.44-3.40Q392.32-3.40 394.97-5.08L394.97-5.08L394.97-5.08Q397.62-6.75 397.62-9.99L397.62-9.99L397.62-9.99Q397.62-11.81 396.79-12.95L396.79-12.95L396.79-12.95Q395.96-14.08 394.45-14.82L394.45-14.82L394.45-14.82Q392.95-15.56 390.87-16.06L390.87-16.06L390.87-16.06Q388.78-16.56 386.25-17.14L386.25-17.14L386.25-17.14Q381.85-18.11 379.57-19.09L379.57-19.09L379.57-19.09Q377.29-20.07 375.97-21.27L375.97-21.27L375.97-21.27Q374.65-22.46 373.95-24.07L373.95-24.07L373.95-24.07Q373.25-25.68 373.25-27.76L373.25-27.76L373.25-27.76Q373.25-32.54 376.91-35.12L376.91-35.12L376.91-35.12Q380.56-37.71 387.36-37.71L387.36-37.71L387.36-37.71Q393.69-37.71 397.04-35.77L397.04-35.77L397.04-35.77Q400.39-33.83 401.73-29.16L401.73-29.16L396.77-28.29L396.77-28.29Q395.96-31.25 393.66-32.58L393.66-32.58L393.66-32.58Q391.37-33.91 387.31-33.91L387.31-33.91L387.31-33.91Q382.85-33.91 380.50-32.43L380.50-32.43L380.50-32.43Q378.16-30.96 378.16-28.03L378.16-28.03L378.16-28.03Q378.16-26.31 379.07-25.19L379.07-25.19L379.07-25.19Q379.98-24.07 381.69-23.30L381.69-23.30L381.69-23.30Q383.41-22.52 388.52-21.38L388.52-21.38L388.52-21.38Q390.23-20.99 391.94-20.58L391.94-20.58L391.94-20.58Q393.64-20.17 395.19-19.60L395.19-19.60L395.19-19.60Q396.75-19.04 398.10-18.27L398.10-18.27L398.10-18.27Q399.46-17.51 400.46-16.40L400.46-16.40L400.46-16.40Q401.47-15.29 402.03-13.79L402.03-13.79L402.03-13.79Q402.60-12.29 402.60-10.26" fill="#fc880f" stroke="none" stroke-width="none" transform="translate(-199.08499145507812,14.396929931640624)" style="fill: rgb(252, 136, 15);"></path></g></g>
</g>
</g>
</svg>
