<!-- <svg xmlns="http://www.w3.org/2000/svg" style="margin:auto;background:rgba(241, 242, 243, 0);display:block;" width="909" height="155" preserveAspectRatio="xMidYMid">
<style type="text/css">
  text {
    text-anchor: middle; font-size: 80px; opacity: 0;
  }
  @keyframes blink-9e5f01bf-78bb-40f9-85cf-dc57438ad15b {
  0% { opacity: 1; }
  90.545% { opacity: 1; }
  91.455% { opacity: 0; }
  99.09% { opacity: 0; }
  100% { opacity: 1; }
}
</style>
<g style="transform-origin:454.5px 77.5px;transform:scale(1)">
<g transform="translate(454.5,77.5)">
  <g transform="translate(0,0)"><g class="path" style="opacity: 1; transform-origin: -263.302px -6.27877px 0px; animation: 1s linear -0.916667s infinite normal forwards running blink-9e5f01bf-78bb-40f9-85cf-dc57438ad15b;"><path d="M15.44-18.96L27.12 0L41.68 0L41.68-2.56L29.68-20.32C46.88-28.56 43.60-56 21.36-56L-0.40-56L-0.40 0L13.20 0L13.20-18.96zM13.20-42.88L21.04-42.88C29.36-42.88 29.28-31.36 21.04-31.36L13.20-31.36" fill="#c0acff" stroke="none" stroke-width="none" transform="translate(-283.941650390625,21.72122563680013)" style="fill: rgb(192, 172, 255);"></path></g><g class="path" style="opacity: 1; transform-origin: -218.742px -6.27877px 0px; animation: 1s linear -0.833333s infinite normal forwards running blink-9e5f01bf-78bb-40f9-85cf-dc57438ad15b;"><path d="M60.48-21.36L83.12-21.36L83.12-34.64L60.48-34.64L60.48-42.80L83.60-42.80L83.60-56L46.72-56L46.72 0L83.68 0L83.68-13.20L60.48-13.20" fill="#c0acff" stroke="none" stroke-width="none" transform="translate(-283.941650390625,21.72122563680013)" style="fill: rgb(107, 62, 255);"></path></g><g class="path" style="opacity: 1; transform-origin: -174.437px -6.27877px 0px; animation: 1s linear -0.75s infinite normal forwards running blink-9e5f01bf-78bb-40f9-85cf-dc57438ad15b;"><path d="M88.96-56L88.96 0L102.64 0L102.64-16.64L110.40-16.64C136.56-16.64 136.64-56 110.40-56zM102.64-29.52L102.64-42.72L110.40-42.72C118.88-42.72 118.88-29.52 110.40-29.52" fill="#c0acff" stroke="none" stroke-width="none" transform="translate(-283.941650390625,21.72122563680013)" style="fill: rgb(35, 0, 151);"></path></g><g class="path" style="opacity: 1; transform-origin: -119.182px -6.31878px 0px; animation: 1s linear -0.666667s infinite normal forwards running blink-9e5f01bf-78bb-40f9-85cf-dc57438ad15b;"><path d="M135.76-27.92C135.76-11.44 148.72 0.80 164.72 0.80C180.72 0.80 193.76-11.68 193.76-27.92C193.76-44.40 180.72-56.88 164.72-56.88C148.72-56.88 135.76-44.40 135.76-27.92zM149.36-27.92C149.36-49.12 180-49.04 180-27.92C180-6.96 149.36-6.80 149.36-27.92" fill="#c0acff" stroke="none" stroke-width="none" transform="translate(-283.941650390625,21.72122563680013)" style="fill: rgb(192, 172, 255);"></path></g><g class="path" style="opacity: 1; transform-origin: -63.9417px -6.31878px 0px; animation: 1s linear -0.583333s infinite normal forwards running blink-9e5f01bf-78bb-40f9-85cf-dc57438ad15b;"><path d="M240.80-38.32C240.80-51.20 230-56.80 220-56.80C208.08-56.80 198-49.44 198.64-37.12L198.64-37.20C199.68-24.32 210.40-22.32 219.44-21.44C221.52-21.20 227.92-21.04 227.92-17.04C227.92-13.84 224.32-12.56 219.84-12.56C216.72-12.56 212.08-13.60 212.08-19.12L198.24-19.12C198.24-4.88 210.64 0.72 219.76 0.72C230.40 0.72 241.76-6 241.76-17.68C241.76-18.88 241.60-20.32 241.36-21.60C238.96-31.68 228.96-33.76 221.04-34.80C219.20-34.96 212.56-35.04 212.56-39.20C212.56-42.24 215.52-44.08 219.76-44.08C224-44.08 227.04-42.08 227.04-38.32" fill="#c0acff" stroke="none" stroke-width="none" transform="translate(-283.941650390625,21.72122563680013)" style="fill: rgb(107, 62, 255);"></path></g><g class="path" style="opacity: 1; transform-origin: -19.9017px -6.27877px 0px; animation: 1s linear -0.5s infinite normal forwards running blink-9e5f01bf-78bb-40f9-85cf-dc57438ad15b;"><path d="M280.16-56L247.92-56L247.92-43.52L257.20-43.52L257.20-12.24L247.92-12.24L247.92 0L280.16 0L280.16-12.24L270.88-12.24L270.88-43.52L280.16-43.52" fill="#c0acff" stroke="none" stroke-width="none" transform="translate(-283.941650390625,21.72122563680013)" style="fill: rgb(192, 172, 255);"></path></g><g class="path" style="opacity: 1; transform-origin: 23.2583px -6.27877px 0px; animation: 1s linear -0.416667s infinite normal forwards running blink-9e5f01bf-78bb-40f9-85cf-dc57438ad15b;"><path d="M314.08 0L314.08-43.20L329.12-43.20L329.12-56L285.28-56L285.28-43.20L300.40-43.20L300.40 0" fill="#c0acff" stroke="none" stroke-width="none" transform="translate(-283.941650390625,21.72122563680013)" style="fill: rgb(107, 62, 255);"></path></g><g class="path" style="opacity: 1; transform-origin: 77.4583px -6.31878px 0px; animation: 1s linear -0.333333s infinite normal forwards running blink-9e5f01bf-78bb-40f9-85cf-dc57438ad15b;"><path d="M332.40-27.92C332.40-11.44 345.36 0.80 361.36 0.80C377.36 0.80 390.40-11.68 390.40-27.92C390.40-44.40 377.36-56.88 361.36-56.88C345.36-56.88 332.40-44.40 332.40-27.92zM346.00-27.92C346.00-49.12 376.64-49.04 376.64-27.92C376.64-6.96 346.00-6.80 346.00-27.92" fill="#c0acff" stroke="none" stroke-width="none" transform="translate(-283.941650390625,21.72122563680013)" style="fill: rgb(35, 0, 151);"></path></g><g class="path" style="opacity: 1; transform-origin: 134.298px -6.27877px 0px; animation: 1s linear -0.25s infinite normal forwards running blink-9e5f01bf-78bb-40f9-85cf-dc57438ad15b;"><path d="M413.04-18.96L424.72 0L439.28 0L439.28-2.56L427.28-20.32C444.48-28.56 441.20-56 418.96-56L397.20-56L397.20 0L410.80 0L410.80-18.96zM410.80-42.88L418.64-42.88C426.96-42.88 426.88-31.36 418.64-31.36L410.80-31.36" fill="#c0acff" stroke="none" stroke-width="none" transform="translate(-283.941650390625,21.72122563680013)" style="fill: rgb(192, 172, 255);"></path></g><g class="path" style="opacity: 1; transform-origin: 176.738px -6.27877px 0px; animation: 1s linear -0.166667s infinite normal forwards running blink-9e5f01bf-78bb-40f9-85cf-dc57438ad15b;"><path d="M476.80-56L444.56-56L444.56-43.52L453.84-43.52L453.84-12.24L444.56-12.24L444.56 0L476.80 0L476.80-12.24L467.52-12.24L467.52-43.52L476.80-43.52" fill="#c0acff" stroke="none" stroke-width="none" transform="translate(-283.941650390625,21.72122563680013)" style="fill: rgb(107, 62, 255);"></path></g><g class="path" style="opacity: 1; transform-origin: 216.698px -6.27877px 0px; animation: 1s linear -0.0833333s infinite normal forwards running blink-9e5f01bf-78bb-40f9-85cf-dc57438ad15b;"><path d="M495.92-21.36L518.56-21.36L518.56-34.64L495.92-34.64L495.92-42.80L519.04-42.80L519.04-56L482.16-56L482.16 0L519.12 0L519.12-13.20L495.92-13.20" fill="#c0acff" stroke="none" stroke-width="none" transform="translate(-283.941650390625,21.72122563680013)" style="fill: rgb(192, 172, 255);"></path></g><g class="path" style="opacity: 1; transform-origin: 261.738px -6.31878px 0px; animation: 1s linear 0s infinite normal forwards running blink-9e5f01bf-78bb-40f9-85cf-dc57438ad15b;"><path d="M566.48-38.32C566.48-51.20 555.68-56.80 545.68-56.80C533.76-56.80 523.68-49.44 524.32-37.12L524.32-37.20C525.36-24.32 536.08-22.32 545.12-21.44C547.20-21.20 553.60-21.04 553.60-17.04C553.60-13.84 550.00-12.56 545.52-12.56C542.40-12.56 537.76-13.60 537.76-19.12L523.92-19.12C523.92-4.88 536.32 0.72 545.44 0.72C556.08 0.72 567.44-6 567.44-17.68C567.44-18.88 567.28-20.32 567.04-21.60C564.64-31.68 554.64-33.76 546.72-34.80C544.88-34.96 538.24-35.04 538.24-39.20C538.24-42.24 541.20-44.08 545.44-44.08C549.68-44.08 552.72-42.08 552.72-38.32" fill="#c0acff" stroke="none" stroke-width="none" transform="translate(-283.941650390625,21.72122563680013)" style="fill: rgb(107, 62, 255);"></path></g></g>
</g>
</g>
</svg> -->

<svg xmlns="http://www.w3.org/2000/svg" style="margin:auto;background:rgba(241, 242, 243, 0);display:block;" width="721" height="250" preserveAspectRatio="xMidYMid">
<style type="text/css">
  text {
    text-anchor: middle; font-size: 54px; opacity: 0;
  }
  
  @keyframes fade-7b437d6e-4c76-4860-b2da-713096091887
{
  0% {
    animation-timing-function: cubic-bezier(0.2057,0.573,0.3723,0.9184);
    opacity: 1;
  }
  100% {
    opacity: 0;
  }
}
  
</style>
<g style="transform-origin:360.5px 125px;transform:scale(1)">
<g transform="translate(360.5,125)">
  <g transform="translate(0,0)"><g class="path" style="opacity: 1; transform-origin: -181.625px -4.068px; animation: 2.7027s linear -1.90766s infinite normal forwards running fade-7b437d6e-4c76-4860-b2da-713096091887;"><path d="M11.77 0L11.77-12.31L15.93-12.31C19.87-12.31 20.95-11.56 22.25-8.86L26.57 0L38.29 0L33.80-9.07C32.45-11.83 31.27-13.61 27.54-14.58L27.54-15.12C34.45-15.98 37.31-19.39 37.31-25.11C37.31-32.18 32.29-36.18 22.73-36.18L1.62-36.18L1.62 0zM11.77-27.05L22.63-27.05C25.60-27.05 26.68-26.35 26.68-23.49C26.68-20.41 25.60-19.87 22.63-19.87L11.77-19.87" fill="#fc880f" stroke="none" stroke-width="none" transform="translate(-201.58001708984375,14.022001546223954)" style="fill: rgb(252, 136, 15);"></path></g><g class="path" style="opacity: 1; transform-origin: -145.605px -4.068px; animation: 2.7027s linear -1.73423s infinite normal forwards running fade-7b437d6e-4c76-4860-b2da-713096091887;"><path d="M72.04 0L72.04-9.13L50.06-9.13L50.06-13.66L71.23-13.66L71.23-22.73L50.06-22.73L50.06-27.05L72.04-27.05L72.04-36.18L39.91-36.18L39.91 0" fill="#fc880f" stroke="none" stroke-width="none" transform="translate(-201.58001708984375,14.022001546223954)" style="fill: rgb(252, 136, 15);"></path></g><g class="path" style="opacity: 1; transform-origin: -109.67px -4.068px; animation: 2.7027s linear -1.56081s infinite normal forwards running fade-7b437d6e-4c76-4860-b2da-713096091887;"><path d="M85.05 0L85.05-9.13L94.93-9.13C103.52-9.13 108.92-14.09 108.92-22.68C108.92-31.27 103.52-36.18 94.93-36.18L74.90-36.18L74.90 0zM93.80-27.05C97.36-27.05 98.82-26.35 98.82-22.68C98.82-18.95 97.36-18.25 93.80-18.25L85.05-18.25L85.05-27.05" fill="#fc880f" stroke="none" stroke-width="none" transform="translate(-201.58001708984375,14.022001546223954)" style="fill: rgb(252, 136, 15);"></path></g><g class="path" style="opacity: 1; transform-origin: -70.9px -4.068px; animation: 2.7027s linear -1.38739s infinite normal forwards running fade-7b437d6e-4c76-4860-b2da-713096091887;"><path d="M130.57 0.54C143.48 0.54 150.82-6.80 150.82-18.09C150.82-29.38 143.48-36.72 130.57-36.72C117.99-36.72 110.54-29.38 110.54-18.09C110.54-6.80 117.99 0.54 130.57 0.54zM130.57-9.18C123.23-9.18 121.34-10.91 121.34-18.09C121.34-25.27 123.23-27 130.57-27C137.92-27 140.02-25.27 140.02-18.09C140.02-10.91 137.92-9.18 130.57-9.18" fill="#fc880f" stroke="none" stroke-width="none" transform="translate(-201.58001708984375,14.022001546223954)" style="fill: rgb(252, 136, 15);"></path></g><g class="path" style="opacity: 1; transform-origin: -31.21px -4.068px; animation: 2.7027s linear -1.21396s infinite normal forwards running fade-7b437d6e-4c76-4860-b2da-713096091887;"><path d="M171.07 0.54C183.28 0.54 188.03-4.97 188.03-11.18C188.03-15.82 185.65-20.36 176.80-21.65L165.46-23.33C163.51-23.60 162.86-24.14 162.86-25.27C162.86-26.84 164.00-27.54 169.18-27.54C175.99-27.54 177.12-26.68 177.12-24.08L177.12-23.27L187.27-23.27L187.27-23.60C187.27-31.70 181.76-36.72 170.26-36.72C157.19-36.72 152.71-30.67 152.71-24.89C152.71-19.06 156.11-15.44 162.86-14.53L174.20-13.01C177.17-12.64 177.88-12.10 177.88-10.80C177.88-9.18 177.23-8.69 171.07-8.69C164.27-8.69 163.40-9.34 163.40-11.77L163.40-12.91L153.25-12.91L153.25-12.58C153.25-3.40 160.00 0.54 171.07 0.54" fill="#fc880f" stroke="none" stroke-width="none" transform="translate(-201.58001708984375,14.022001546223954)" style="fill: rgb(252, 136, 15);"></path></g><g class="path" style="opacity: 1; transform-origin: -6.04501px -4.068px; animation: 2.7027s linear -1.04054s infinite normal forwards running fade-7b437d6e-4c76-4860-b2da-713096091887;"><path d="M200.61 0L200.61-36.18L190.46-36.18L190.46 0" fill="#fc880f" stroke="none" stroke-width="none" transform="translate(-201.58001708984375,14.022001546223954)" style="fill: rgb(252, 136, 15);"></path></g><g class="path" style="opacity: 1; transform-origin: 19.305px -4.068px; animation: 2.7027s linear -0.867117s infinite normal forwards running fade-7b437d6e-4c76-4860-b2da-713096091887;"><path d="M225.99 0L225.99-27.05L238.73-27.05L238.73-36.18L203.04-36.18L203.04-27.05L215.84-27.05L215.84 0" fill="#fc880f" stroke="none" stroke-width="none" transform="translate(-201.58001708984375,14.022001546223954)" style="fill: rgb(252, 136, 15);"></path></g><g class="path" style="opacity: 1; transform-origin: 59.185px -4.068px; animation: 2.7027s linear -0.693694s infinite normal forwards running fade-7b437d6e-4c76-4860-b2da-713096091887;"><path d="M260.66 0.54C273.56 0.54 280.91-6.80 280.91-18.09C280.91-29.38 273.56-36.72 260.66-36.72C248.08-36.72 240.62-29.38 240.62-18.09C240.62-6.80 248.08 0.54 260.66 0.54zM260.66-9.18C253.31-9.18 251.42-10.91 251.42-18.09C251.42-25.27 253.31-27 260.66-27C268.00-27 270.11-25.27 270.11-18.09C270.11-10.91 268.00-9.18 260.66-9.18" fill="#fc880f" stroke="none" stroke-width="none" transform="translate(-201.58001708984375,14.022001546223954)" style="fill: rgb(252, 136, 15);"></path></g><g class="path" style="opacity: 1; transform-origin: 100.36px -4.068px; animation: 2.7027s linear -0.52027s infinite normal forwards running fade-7b437d6e-4c76-4860-b2da-713096091887;"><path d="M293.76 0L293.76-12.31L297.92-12.31C301.86-12.31 302.94-11.56 304.24-8.86L308.56 0L320.27 0L315.79-9.07C314.44-11.83 313.25-13.61 309.53-14.58L309.53-15.12C316.44-15.98 319.30-19.39 319.30-25.11C319.30-32.18 314.28-36.18 304.72-36.18L283.61-36.18L283.61 0zM293.76-27.05L304.61-27.05C307.58-27.05 308.66-26.35 308.66-23.49C308.66-20.41 307.58-19.87 304.61-19.87L293.76-19.87" fill="#fc880f" stroke="none" stroke-width="none" transform="translate(-201.58001708984375,14.022001546223954)" style="fill: rgb(252, 136, 15);"></path></g><g class="path" style="opacity: 1; transform-origin: 125.39px -4.068px; animation: 2.7027s linear -0.346847s infinite normal forwards running fade-7b437d6e-4c76-4860-b2da-713096091887;"><path d="M332.05 0L332.05-36.18L321.89-36.18L321.89 0" fill="#fc880f" stroke="none" stroke-width="none" transform="translate(-201.58001708984375,14.022001546223954)" style="fill: rgb(252, 136, 15);"></path></g><g class="path" style="opacity: 1; transform-origin: 149.775px -4.068px; animation: 2.7027s linear -0.173423s infinite normal forwards running fade-7b437d6e-4c76-4860-b2da-713096091887;"><path d="M367.42 0L367.42-9.13L345.44-9.13L345.44-13.66L366.61-13.66L366.61-22.73L345.44-22.73L345.44-27.05L367.42-27.05L367.42-36.18L335.29-36.18L335.29 0" fill="#fc880f" stroke="none" stroke-width="none" transform="translate(-201.58001708984375,14.022001546223954)" style="fill: rgb(252, 136, 15);"></path></g><g class="path" style="opacity: 1; transform-origin: 185.545px -4.068px; animation: 2.7027s linear 0s infinite normal forwards running fade-7b437d6e-4c76-4860-b2da-713096091887;"><path d="M387.83 0.54C400.03 0.54 404.78-4.97 404.78-11.18C404.78-15.82 402.41-20.36 393.55-21.65L382.21-23.33C380.27-23.60 379.62-24.14 379.62-25.27C379.62-26.84 380.75-27.54 385.94-27.54C392.74-27.54 393.88-26.68 393.88-24.08L393.88-23.27L404.03-23.27L404.03-23.60C404.03-31.70 398.52-36.72 387.02-36.72C373.95-36.72 369.47-30.67 369.47-24.89C369.47-19.06 372.87-15.44 379.62-14.53L390.96-13.01C393.93-12.64 394.63-12.10 394.63-10.80C394.63-9.18 393.98-8.69 387.83-8.69C381.02-8.69 380.16-9.34 380.16-11.77L380.16-12.91L370.01-12.91L370.01-12.58C370.01-3.40 376.76 0.54 387.83 0.54" fill="#fc880f" stroke="none" stroke-width="none" transform="translate(-201.58001708984375,14.022001546223954)" style="fill: rgb(252, 136, 15);"></path></g></g>
</g>
</g>
</svg>
