<svg xmlns="http://www.w3.org/2000/svg" style="margin:auto;background:rgba(241, 242, 243, 0);display:block;" width="909" height="155" preserveAspectRatio="xMidYMid">
<style type="text/css">
  text {
    text-anchor: middle; font-size: 80px; opacity: 0;
  }
  @keyframes blink-9e5f01bf-78bb-40f9-85cf-dc57438ad15b {
  0% { opacity: 1; }
  90.545% { opacity: 1; }
  91.455% { opacity: 0; }
  99.09% { opacity: 0; }
  100% { opacity: 1; }
}
</style>
<g style="transform-origin:454.5px 77.5px;transform:scale(1)">
<g transform="translate(454.5,77.5)">
  <g transform="translate(0,0)"><g class="path" style="opacity: 1; transform-origin: -263.302px -6.27877px 0px; animation: 1s linear -0.916667s infinite normal forwards running blink-9e5f01bf-78bb-40f9-85cf-dc57438ad15b;"><path d="M15.44-18.96L27.12 0L41.68 0L41.68-2.56L29.68-20.32C46.88-28.56 43.60-56 21.36-56L-0.40-56L-0.40 0L13.20 0L13.20-18.96zM13.20-42.88L21.04-42.88C29.36-42.88 29.28-31.36 21.04-31.36L13.20-31.36" fill="#c0acff" stroke="none" stroke-width="none" transform="translate(-283.941650390625,21.72122563680013)" style="fill: rgb(192, 172, 255);"></path></g><g class="path" style="opacity: 1; transform-origin: -218.742px -6.27877px 0px; animation: 1s linear -0.833333s infinite normal forwards running blink-9e5f01bf-78bb-40f9-85cf-dc57438ad15b;"><path d="M60.48-21.36L83.12-21.36L83.12-34.64L60.48-34.64L60.48-42.80L83.60-42.80L83.60-56L46.72-56L46.72 0L83.68 0L83.68-13.20L60.48-13.20" fill="#c0acff" stroke="none" stroke-width="none" transform="translate(-283.941650390625,21.72122563680013)" style="fill: rgb(107, 62, 255);"></path></g><g class="path" style="opacity: 1; transform-origin: -174.437px -6.27877px 0px; animation: 1s linear -0.75s infinite normal forwards running blink-9e5f01bf-78bb-40f9-85cf-dc57438ad15b;"><path d="M88.96-56L88.96 0L102.64 0L102.64-16.64L110.40-16.64C136.56-16.64 136.64-56 110.40-56zM102.64-29.52L102.64-42.72L110.40-42.72C118.88-42.72 118.88-29.52 110.40-29.52" fill="#c0acff" stroke="none" stroke-width="none" transform="translate(-283.941650390625,21.72122563680013)" style="fill: rgb(35, 0, 151);"></path></g><g class="path" style="opacity: 1; transform-origin: -119.182px -6.31878px 0px; animation: 1s linear -0.666667s infinite normal forwards running blink-9e5f01bf-78bb-40f9-85cf-dc57438ad15b;"><path d="M135.76-27.92C135.76-11.44 148.72 0.80 164.72 0.80C180.72 0.80 193.76-11.68 193.76-27.92C193.76-44.40 180.72-56.88 164.72-56.88C148.72-56.88 135.76-44.40 135.76-27.92zM149.36-27.92C149.36-49.12 180-49.04 180-27.92C180-6.96 149.36-6.80 149.36-27.92" fill="#c0acff" stroke="none" stroke-width="none" transform="translate(-283.941650390625,21.72122563680013)" style="fill: rgb(192, 172, 255);"></path></g><g class="path" style="opacity: 1; transform-origin: -63.9417px -6.31878px 0px; animation: 1s linear -0.583333s infinite normal forwards running blink-9e5f01bf-78bb-40f9-85cf-dc57438ad15b;"><path d="M240.80-38.32C240.80-51.20 230-56.80 220-56.80C208.08-56.80 198-49.44 198.64-37.12L198.64-37.20C199.68-24.32 210.40-22.32 219.44-21.44C221.52-21.20 227.92-21.04 227.92-17.04C227.92-13.84 224.32-12.56 219.84-12.56C216.72-12.56 212.08-13.60 212.08-19.12L198.24-19.12C198.24-4.88 210.64 0.72 219.76 0.72C230.40 0.72 241.76-6 241.76-17.68C241.76-18.88 241.60-20.32 241.36-21.60C238.96-31.68 228.96-33.76 221.04-34.80C219.20-34.96 212.56-35.04 212.56-39.20C212.56-42.24 215.52-44.08 219.76-44.08C224-44.08 227.04-42.08 227.04-38.32" fill="#c0acff" stroke="none" stroke-width="none" transform="translate(-283.941650390625,21.72122563680013)" style="fill: rgb(107, 62, 255);"></path></g><g class="path" style="opacity: 1; transform-origin: -19.9017px -6.27877px 0px; animation: 1s linear -0.5s infinite normal forwards running blink-9e5f01bf-78bb-40f9-85cf-dc57438ad15b;"><path d="M280.16-56L247.92-56L247.92-43.52L257.20-43.52L257.20-12.24L247.92-12.24L247.92 0L280.16 0L280.16-12.24L270.88-12.24L270.88-43.52L280.16-43.52" fill="#c0acff" stroke="none" stroke-width="none" transform="translate(-283.941650390625,21.72122563680013)" style="fill: rgb(192, 172, 255);"></path></g><g class="path" style="opacity: 1; transform-origin: 23.2583px -6.27877px 0px; animation: 1s linear -0.416667s infinite normal forwards running blink-9e5f01bf-78bb-40f9-85cf-dc57438ad15b;"><path d="M314.08 0L314.08-43.20L329.12-43.20L329.12-56L285.28-56L285.28-43.20L300.40-43.20L300.40 0" fill="#c0acff" stroke="none" stroke-width="none" transform="translate(-283.941650390625,21.72122563680013)" style="fill: rgb(107, 62, 255);"></path></g><g class="path" style="opacity: 1; transform-origin: 77.4583px -6.31878px 0px; animation: 1s linear -0.333333s infinite normal forwards running blink-9e5f01bf-78bb-40f9-85cf-dc57438ad15b;"><path d="M332.40-27.92C332.40-11.44 345.36 0.80 361.36 0.80C377.36 0.80 390.40-11.68 390.40-27.92C390.40-44.40 377.36-56.88 361.36-56.88C345.36-56.88 332.40-44.40 332.40-27.92zM346.00-27.92C346.00-49.12 376.64-49.04 376.64-27.92C376.64-6.96 346.00-6.80 346.00-27.92" fill="#c0acff" stroke="none" stroke-width="none" transform="translate(-283.941650390625,21.72122563680013)" style="fill: rgb(35, 0, 151);"></path></g><g class="path" style="opacity: 1; transform-origin: 134.298px -6.27877px 0px; animation: 1s linear -0.25s infinite normal forwards running blink-9e5f01bf-78bb-40f9-85cf-dc57438ad15b;"><path d="M413.04-18.96L424.72 0L439.28 0L439.28-2.56L427.28-20.32C444.48-28.56 441.20-56 418.96-56L397.20-56L397.20 0L410.80 0L410.80-18.96zM410.80-42.88L418.64-42.88C426.96-42.88 426.88-31.36 418.64-31.36L410.80-31.36" fill="#c0acff" stroke="none" stroke-width="none" transform="translate(-283.941650390625,21.72122563680013)" style="fill: rgb(192, 172, 255);"></path></g><g class="path" style="opacity: 1; transform-origin: 176.738px -6.27877px 0px; animation: 1s linear -0.166667s infinite normal forwards running blink-9e5f01bf-78bb-40f9-85cf-dc57438ad15b;"><path d="M476.80-56L444.56-56L444.56-43.52L453.84-43.52L453.84-12.24L444.56-12.24L444.56 0L476.80 0L476.80-12.24L467.52-12.24L467.52-43.52L476.80-43.52" fill="#c0acff" stroke="none" stroke-width="none" transform="translate(-283.941650390625,21.72122563680013)" style="fill: rgb(107, 62, 255);"></path></g><g class="path" style="opacity: 1; transform-origin: 216.698px -6.27877px 0px; animation: 1s linear -0.0833333s infinite normal forwards running blink-9e5f01bf-78bb-40f9-85cf-dc57438ad15b;"><path d="M495.92-21.36L518.56-21.36L518.56-34.64L495.92-34.64L495.92-42.80L519.04-42.80L519.04-56L482.16-56L482.16 0L519.12 0L519.12-13.20L495.92-13.20" fill="#c0acff" stroke="none" stroke-width="none" transform="translate(-283.941650390625,21.72122563680013)" style="fill: rgb(192, 172, 255);"></path></g><g class="path" style="opacity: 1; transform-origin: 261.738px -6.31878px 0px; animation: 1s linear 0s infinite normal forwards running blink-9e5f01bf-78bb-40f9-85cf-dc57438ad15b;"><path d="M566.48-38.32C566.48-51.20 555.68-56.80 545.68-56.80C533.76-56.80 523.68-49.44 524.32-37.12L524.32-37.20C525.36-24.32 536.08-22.32 545.12-21.44C547.20-21.20 553.60-21.04 553.60-17.04C553.60-13.84 550.00-12.56 545.52-12.56C542.40-12.56 537.76-13.60 537.76-19.12L523.92-19.12C523.92-4.88 536.32 0.72 545.44 0.72C556.08 0.72 567.44-6 567.44-17.68C567.44-18.88 567.28-20.32 567.04-21.60C564.64-31.68 554.64-33.76 546.72-34.80C544.88-34.96 538.24-35.04 538.24-39.20C538.24-42.24 541.20-44.08 545.44-44.08C549.68-44.08 552.72-42.08 552.72-38.32" fill="#c0acff" stroke="none" stroke-width="none" transform="translate(-283.941650390625,21.72122563680013)" style="fill: rgb(107, 62, 255);"></path></g></g>
</g>
</g>
</svg>