<!-- <svg xmlns="http://www.w3.org/2000/svg" style="margin:auto;background:rgba(241, 242, 243, 0);display:block;" width="909" height="155" preserveAspectRatio="xMidYMid">
<style type="text/css">
  text {
    text-anchor: middle; font-size: 80px; opacity: 0;
  }
  @keyframes blink-9e5f01bf-78bb-40f9-85cf-dc57438ad15b {
  0% { opacity: 1; }
  90.545% { opacity: 1; }
  91.455% { opacity: 0; }
  99.09% { opacity: 0; }
  100% { opacity: 1; }
}
</style>
<g style="transform-origin:454.5px 77.5px;transform:scale(1)">
<g transform="translate(454.5,77.5)">
  <g transform="translate(0,0)"><g class="path" style="opacity: 1; transform-origin: -263.302px -6.27877px 0px; animation: 1s linear -0.916667s infinite normal forwards running blink-9e5f01bf-78bb-40f9-85cf-dc57438ad15b;"><path d="M15.44-18.96L27.12 0L41.68 0L41.68-2.56L29.68-20.32C46.88-28.56 43.60-56 21.36-56L-0.40-56L-0.40 0L13.20 0L13.20-18.96zM13.20-42.88L21.04-42.88C29.36-42.88 29.28-31.36 21.04-31.36L13.20-31.36" fill="#c0acff" stroke="none" stroke-width="none" transform="translate(-283.941650390625,21.72122563680013)" style="fill: rgb(192, 172, 255);"></path></g><g class="path" style="opacity: 1; transform-origin: -218.742px -6.27877px 0px; animation: 1s linear -0.833333s infinite normal forwards running blink-9e5f01bf-78bb-40f9-85cf-dc57438ad15b;"><path d="M60.48-21.36L83.12-21.36L83.12-34.64L60.48-34.64L60.48-42.80L83.60-42.80L83.60-56L46.72-56L46.72 0L83.68 0L83.68-13.20L60.48-13.20" fill="#c0acff" stroke="none" stroke-width="none" transform="translate(-283.941650390625,21.72122563680013)" style="fill: rgb(107, 62, 255);"></path></g><g class="path" style="opacity: 1; transform-origin: -174.437px -6.27877px 0px; animation: 1s linear -0.75s infinite normal forwards running blink-9e5f01bf-78bb-40f9-85cf-dc57438ad15b;"><path d="M88.96-56L88.96 0L102.64 0L102.64-16.64L110.40-16.64C136.56-16.64 136.64-56 110.40-56zM102.64-29.52L102.64-42.72L110.40-42.72C118.88-42.72 118.88-29.52 110.40-29.52" fill="#c0acff" stroke="none" stroke-width="none" transform="translate(-283.941650390625,21.72122563680013)" style="fill: rgb(35, 0, 151);"></path></g><g class="path" style="opacity: 1; transform-origin: -119.182px -6.31878px 0px; animation: 1s linear -0.666667s infinite normal forwards running blink-9e5f01bf-78bb-40f9-85cf-dc57438ad15b;"><path d="M135.76-27.92C135.76-11.44 148.72 0.80 164.72 0.80C180.72 0.80 193.76-11.68 193.76-27.92C193.76-44.40 180.72-56.88 164.72-56.88C148.72-56.88 135.76-44.40 135.76-27.92zM149.36-27.92C149.36-49.12 180-49.04 180-27.92C180-6.96 149.36-6.80 149.36-27.92" fill="#c0acff" stroke="none" stroke-width="none" transform="translate(-283.941650390625,21.72122563680013)" style="fill: rgb(192, 172, 255);"></path></g><g class="path" style="opacity: 1; transform-origin: -63.9417px -6.31878px 0px; animation: 1s linear -0.583333s infinite normal forwards running blink-9e5f01bf-78bb-40f9-85cf-dc57438ad15b;"><path d="M240.80-38.32C240.80-51.20 230-56.80 220-56.80C208.08-56.80 198-49.44 198.64-37.12L198.64-37.20C199.68-24.32 210.40-22.32 219.44-21.44C221.52-21.20 227.92-21.04 227.92-17.04C227.92-13.84 224.32-12.56 219.84-12.56C216.72-12.56 212.08-13.60 212.08-19.12L198.24-19.12C198.24-4.88 210.64 0.72 219.76 0.72C230.40 0.72 241.76-6 241.76-17.68C241.76-18.88 241.60-20.32 241.36-21.60C238.96-31.68 228.96-33.76 221.04-34.80C219.20-34.96 212.56-35.04 212.56-39.20C212.56-42.24 215.52-44.08 219.76-44.08C224-44.08 227.04-42.08 227.04-38.32" fill="#c0acff" stroke="none" stroke-width="none" transform="translate(-283.941650390625,21.72122563680013)" style="fill: rgb(107, 62, 255);"></path></g><g class="path" style="opacity: 1; transform-origin: -19.9017px -6.27877px 0px; animation: 1s linear -0.5s infinite normal forwards running blink-9e5f01bf-78bb-40f9-85cf-dc57438ad15b;"><path d="M280.16-56L247.92-56L247.92-43.52L257.20-43.52L257.20-12.24L247.92-12.24L247.92 0L280.16 0L280.16-12.24L270.88-12.24L270.88-43.52L280.16-43.52" fill="#c0acff" stroke="none" stroke-width="none" transform="translate(-283.941650390625,21.72122563680013)" style="fill: rgb(192, 172, 255);"></path></g><g class="path" style="opacity: 1; transform-origin: 23.2583px -6.27877px 0px; animation: 1s linear -0.416667s infinite normal forwards running blink-9e5f01bf-78bb-40f9-85cf-dc57438ad15b;"><path d="M314.08 0L314.08-43.20L329.12-43.20L329.12-56L285.28-56L285.28-43.20L300.40-43.20L300.40 0" fill="#c0acff" stroke="none" stroke-width="none" transform="translate(-283.941650390625,21.72122563680013)" style="fill: rgb(107, 62, 255);"></path></g><g class="path" style="opacity: 1; transform-origin: 77.4583px -6.31878px 0px; animation: 1s linear -0.333333s infinite normal forwards running blink-9e5f01bf-78bb-40f9-85cf-dc57438ad15b;"><path d="M332.40-27.92C332.40-11.44 345.36 0.80 361.36 0.80C377.36 0.80 390.40-11.68 390.40-27.92C390.40-44.40 377.36-56.88 361.36-56.88C345.36-56.88 332.40-44.40 332.40-27.92zM346.00-27.92C346.00-49.12 376.64-49.04 376.64-27.92C376.64-6.96 346.00-6.80 346.00-27.92" fill="#c0acff" stroke="none" stroke-width="none" transform="translate(-283.941650390625,21.72122563680013)" style="fill: rgb(35, 0, 151);"></path></g><g class="path" style="opacity: 1; transform-origin: 134.298px -6.27877px 0px; animation: 1s linear -0.25s infinite normal forwards running blink-9e5f01bf-78bb-40f9-85cf-dc57438ad15b;"><path d="M413.04-18.96L424.72 0L439.28 0L439.28-2.56L427.28-20.32C444.48-28.56 441.20-56 418.96-56L397.20-56L397.20 0L410.80 0L410.80-18.96zM410.80-42.88L418.64-42.88C426.96-42.88 426.88-31.36 418.64-31.36L410.80-31.36" fill="#c0acff" stroke="none" stroke-width="none" transform="translate(-283.941650390625,21.72122563680013)" style="fill: rgb(192, 172, 255);"></path></g><g class="path" style="opacity: 1; transform-origin: 176.738px -6.27877px 0px; animation: 1s linear -0.166667s infinite normal forwards running blink-9e5f01bf-78bb-40f9-85cf-dc57438ad15b;"><path d="M476.80-56L444.56-56L444.56-43.52L453.84-43.52L453.84-12.24L444.56-12.24L444.56 0L476.80 0L476.80-12.24L467.52-12.24L467.52-43.52L476.80-43.52" fill="#c0acff" stroke="none" stroke-width="none" transform="translate(-283.941650390625,21.72122563680013)" style="fill: rgb(107, 62, 255);"></path></g><g class="path" style="opacity: 1; transform-origin: 216.698px -6.27877px 0px; animation: 1s linear -0.0833333s infinite normal forwards running blink-9e5f01bf-78bb-40f9-85cf-dc57438ad15b;"><path d="M495.92-21.36L518.56-21.36L518.56-34.64L495.92-34.64L495.92-42.80L519.04-42.80L519.04-56L482.16-56L482.16 0L519.12 0L519.12-13.20L495.92-13.20" fill="#c0acff" stroke="none" stroke-width="none" transform="translate(-283.941650390625,21.72122563680013)" style="fill: rgb(192, 172, 255);"></path></g><g class="path" style="opacity: 1; transform-origin: 261.738px -6.31878px 0px; animation: 1s linear 0s infinite normal forwards running blink-9e5f01bf-78bb-40f9-85cf-dc57438ad15b;"><path d="M566.48-38.32C566.48-51.20 555.68-56.80 545.68-56.80C533.76-56.80 523.68-49.44 524.32-37.12L524.32-37.20C525.36-24.32 536.08-22.32 545.12-21.44C547.20-21.20 553.60-21.04 553.60-17.04C553.60-13.84 550.00-12.56 545.52-12.56C542.40-12.56 537.76-13.60 537.76-19.12L523.92-19.12C523.92-4.88 536.32 0.72 545.44 0.72C556.08 0.72 567.44-6 567.44-17.68C567.44-18.88 567.28-20.32 567.04-21.60C564.64-31.68 554.64-33.76 546.72-34.80C544.88-34.96 538.24-35.04 538.24-39.20C538.24-42.24 541.20-44.08 545.44-44.08C549.68-44.08 552.72-42.08 552.72-38.32" fill="#c0acff" stroke="none" stroke-width="none" transform="translate(-283.941650390625,21.72122563680013)" style="fill: rgb(107, 62, 255);"></path></g></g>
</g>
</g>
</svg> -->

<svg xmlns="http://www.w3.org/2000/svg" style="margin:auto;background:#f1f2f3;display:block;" width="721" height="250" preserveAspectRatio="xMidYMid">
<style type="text/css">
  text {
    text-anchor: middle; font-size: 54px; opacity: 0;
  }
</style>
<g style="transform-origin: 360.5px 125px; transform: scale(1.8);">
<g transform="translate(360.5,125)">
  <g transform="translate(0,0)"><g class="path" style="opacity: 1; transform-origin: -98.61px -2.3232px; animation: 2.7027s linear -1.90766s infinite normal forwards running fade-7b437d6e-4c76-4860-b2da-713096091887;"><path d="M18.90 0L15.72 0L11.49-8.19L11.19-8.19L6.39-8.19L6.39 0L3.75 0L3.75-20.88L10.83-20.88L10.83-20.88Q14.58-20.88 16.41-19.30L16.41-19.30L16.41-19.30Q18.24-17.73 18.24-14.70L18.24-14.70L18.24-14.70Q18.24-12.45 17.25-10.89L17.25-10.89L17.25-10.89Q16.26-9.33 14.34-8.67L14.34-8.67L18.90 0zM10.86-10.68L10.86-10.68Q13.20-10.68 14.29-11.59L14.29-11.59L14.29-11.59Q15.39-12.51 15.39-14.70L15.39-14.70L15.39-14.70Q15.39-16.71 14.29-17.54L14.29-17.54L14.29-17.54Q13.20-18.36 10.83-18.36L10.83-18.36L6.39-18.36L6.39-10.68L10.86-10.68" fill="#fc880f" stroke="none" stroke-width="none" transform="translate(-109.93499755859375,8.116802164713546)" style="fill: rgb(252, 136, 15);"></path></g><g class="path" style="opacity: 1; transform-origin: -78.96px -2.3232px; animation: 2.7027s linear -1.73423s infinite normal forwards running fade-7b437d6e-4c76-4860-b2da-713096091887;"><path d="M37.20-18.36L27.39-18.36L27.39-11.76L36.54-11.76L36.54-9.36L27.39-9.36L27.39-2.52L37.20-2.52L37.20 0L24.75 0L24.75-20.88L37.20-20.88L37.20-18.36" fill="#fc880f" stroke="none" stroke-width="none" transform="translate(-109.93499755859375,8.116802164713546)" style="fill: rgb(252, 136, 15);"></path></g><g class="path" style="opacity: 1; transform-origin: -58.695px -2.3232px; animation: 2.7027s linear -1.56081s infinite normal forwards running fade-7b437d6e-4c76-4860-b2da-713096091887;"><path d="M43.95 0L43.95-20.88L50.73-20.88L50.73-20.88Q58.53-20.88 58.53-14.04L58.53-14.04L58.53-14.04Q58.53-10.59 56.59-8.78L56.59-8.78L56.59-8.78Q54.66-6.96 50.94-6.96L50.94-6.96L46.59-6.96L46.59 0L43.95 0zM46.59-9.42L50.85-9.42L50.85-9.42Q53.43-9.42 54.55-10.47L54.55-10.47L54.55-10.47Q55.68-11.52 55.68-13.92L55.68-13.92L55.68-13.92Q55.68-16.32 54.55-17.34L54.55-17.34L54.55-17.34Q53.43-18.36 50.73-18.36L50.73-18.36L46.59-18.36L46.59-9.42" fill="#fc880f" stroke="none" stroke-width="none" transform="translate(-109.93499755859375,8.116802164713546)" style="fill: rgb(252, 136, 15);"></path></g><g class="path" style="opacity: 1; transform-origin: -37.335px -2.3232px; animation: 2.7027s linear -1.38739s infinite normal forwards running fade-7b437d6e-4c76-4860-b2da-713096091887;"><path d="M72.60 0.36L72.60 0.36Q69.57 0.36 67.42-0.99L67.42-0.99L67.42-0.99Q65.28-2.34 64.16-4.77L64.16-4.77L64.16-4.77Q63.03-7.20 63.03-10.44L63.03-10.44L63.03-10.44Q63.03-13.68 64.16-16.11L64.16-16.11L64.16-16.11Q65.28-18.54 67.42-19.89L67.42-19.89L67.42-19.89Q69.57-21.24 72.60-21.24L72.60-21.24L72.60-21.24Q75.63-21.24 77.78-19.89L77.78-19.89L77.78-19.89Q79.92-18.54 81.05-16.11L81.05-16.11L81.05-16.11Q82.17-13.68 82.17-10.44L82.17-10.44L82.17-10.44Q82.17-7.20 81.05-4.77L81.05-4.77L81.05-4.77Q79.92-2.34 77.78-0.99L77.78-0.99L77.78-0.99Q75.63 0.36 72.60 0.36L72.60 0.36zM72.60-2.04L72.60-2.04Q75.96-2.04 77.64-4.30L77.64-4.30L77.64-4.30Q79.32-6.57 79.32-10.44L79.32-10.44L79.32-10.44Q79.32-14.31 77.64-16.57L77.64-16.57L77.64-16.57Q75.96-18.84 72.60-18.84L72.60-18.84L72.60-18.84Q69.24-18.84 67.56-16.57L67.56-16.57L67.56-16.57Q65.88-14.31 65.88-10.44L65.88-10.44L65.88-10.44Q65.88-6.57 67.56-4.30L67.56-4.30L67.56-4.30Q69.24-2.04 72.60-2.04L72.60-2.04" fill="#fc880f" stroke="none" stroke-width="none" transform="translate(-109.93499755859375,8.116802164713546)" style="fill: rgb(252, 136, 15);"></path></g><g class="path" style="opacity: 1; transform-origin: -15.135px -2.3232px; animation: 2.7027s linear -1.21396s infinite normal forwards running fade-7b437d6e-4c76-4860-b2da-713096091887;"><path d="M94.98 0.36L94.98 0.36Q93.24 0.36 91.35-0.09L91.35-0.09L91.35-0.09Q89.46-0.54 87.78-1.32L87.78-1.32L87.78-4.17L87.78-4.17Q89.76-3.09 91.45-2.58L91.45-2.58L91.45-2.58Q93.15-2.07 94.80-2.07L94.80-2.07L94.80-2.07Q96.87-2.07 98.01-3L98.01-3L98.01-3Q99.15-3.93 99.15-5.55L99.15-5.55L99.15-5.55Q99.15-6.66 98.52-7.41L98.52-7.41L98.52-7.41Q97.89-8.16 96.93-8.61L96.93-8.61L96.93-8.61Q95.97-9.06 94.35-9.60L94.35-9.60L94.35-9.60Q92.40-10.26 91.22-10.86L91.22-10.86L91.22-10.86Q90.03-11.46 89.19-12.57L89.19-12.57L89.19-12.57Q88.35-13.68 88.35-15.45L88.35-15.45L88.35-15.45Q88.35-18.09 90.27-19.66L90.27-19.66L90.27-19.66Q92.19-21.24 95.43-21.24L95.43-21.24L95.43-21.24Q98.58-21.24 101.22-19.89L101.22-19.89L101.22-17.13L101.22-17.13Q98.25-18.81 95.43-18.81L95.43-18.81L95.43-18.81Q93.36-18.81 92.19-17.98L92.19-17.98L92.19-17.98Q91.02-17.16 91.02-15.72L91.02-15.72L91.02-15.72Q91.02-14.73 91.62-14.07L91.62-14.07L91.62-14.07Q92.22-13.41 93.09-13.00L93.09-13.00L93.09-13.00Q93.96-12.60 95.55-12.03L95.55-12.03L95.55-12.03Q97.53-11.37 98.79-10.74L98.79-10.74L98.79-10.74Q100.05-10.11 100.94-8.91L100.94-8.91L100.94-8.91Q101.82-7.71 101.82-5.82L101.82-5.82L101.82-5.82Q101.82-3.96 100.98-2.56L100.98-2.56L100.98-2.56Q100.14-1.17 98.58-0.40L98.58-0.40L98.58-0.40Q97.02 0.36 94.98 0.36L94.98 0.36" fill="#fc880f" stroke="none" stroke-width="none" transform="translate(-109.93499755859375,8.116802164713546)" style="fill: rgb(252, 136, 15);"></path></g><g class="path" style="opacity: 1; transform-origin: -0.735001px -2.3232px; animation: 2.7027s linear -1.04054s infinite normal forwards running fade-7b437d6e-4c76-4860-b2da-713096091887;"><path d="M107.88 0L107.88-20.88L110.52-20.88L110.52 0L107.88 0" fill="#fc880f" stroke="none" stroke-width="none" transform="translate(-109.93499755859375,8.116802164713546)" style="fill: rgb(252, 136, 15);"></path></g><g class="path" style="opacity: 1; transform-origin: 13.665px -2.3232px; animation: 2.7027s linear -0.867117s infinite normal forwards running fade-7b437d6e-4c76-4860-b2da-713096091887;"><path d="M122.28 0L122.28-18.24L115.98-18.24L115.98-20.88L131.22-20.88L131.22-18.24L124.92-18.24L124.92 0L122.28 0" fill="#fc880f" stroke="none" stroke-width="none" transform="translate(-109.93499755859375,8.116802164713546)" style="fill: rgb(252, 136, 15);"></path></g><g class="path" style="opacity: 1; transform-origin: 34.665px -2.3232px; animation: 2.7027s linear -0.693694s infinite normal forwards running fade-7b437d6e-4c76-4860-b2da-713096091887;"><path d="M144.60 0.36L144.60 0.36Q141.57 0.36 139.43-0.99L139.43-0.99L139.43-0.99Q137.28-2.34 136.16-4.77L136.16-4.77L136.16-4.77Q135.03-7.20 135.03-10.44L135.03-10.44L135.03-10.44Q135.03-13.68 136.16-16.11L136.16-16.11L136.16-16.11Q137.28-18.54 139.43-19.89L139.43-19.89L139.43-19.89Q141.57-21.24 144.60-21.24L144.60-21.24L144.60-21.24Q147.63-21.24 149.78-19.89L149.78-19.89L149.78-19.89Q151.92-18.54 153.04-16.11L153.04-16.11L153.04-16.11Q154.17-13.68 154.17-10.44L154.17-10.44L154.17-10.44Q154.17-7.20 153.04-4.77L153.04-4.77L153.04-4.77Q151.92-2.34 149.78-0.99L149.78-0.99L149.78-0.99Q147.63 0.36 144.60 0.36L144.60 0.36zM144.60-2.04L144.60-2.04Q147.96-2.04 149.64-4.30L149.64-4.30L149.64-4.30Q151.32-6.57 151.32-10.44L151.32-10.44L151.32-10.44Q151.32-14.31 149.64-16.57L149.64-16.57L149.64-16.57Q147.96-18.84 144.60-18.84L144.60-18.84L144.60-18.84Q141.24-18.84 139.56-16.57L139.56-16.57L139.56-16.57Q137.88-14.31 137.88-10.44L137.88-10.44L137.88-10.44Q137.88-6.57 139.56-4.30L139.56-4.30L139.56-4.30Q141.24-2.04 144.60-2.04L144.60-2.04" fill="#fc880f" stroke="none" stroke-width="none" transform="translate(-109.93499755859375,8.116802164713546)" style="fill: rgb(252, 136, 15);"></path></g><g class="path" style="opacity: 1; transform-origin: 58.59px -2.3232px; animation: 2.7027s linear -0.52027s infinite normal forwards running fade-7b437d6e-4c76-4860-b2da-713096091887;"><path d="M176.10 0L172.92 0L168.69-8.19L168.39-8.19L163.59-8.19L163.59 0L160.95 0L160.95-20.88L168.03-20.88L168.03-20.88Q171.78-20.88 173.61-19.30L173.61-19.30L173.61-19.30Q175.44-17.73 175.44-14.70L175.44-14.70L175.44-14.70Q175.44-12.45 174.45-10.89L174.45-10.89L174.45-10.89Q173.46-9.33 171.54-8.67L171.54-8.67L176.10 0zM168.06-10.68L168.06-10.68Q170.40-10.68 171.49-11.59L171.49-11.59L171.49-11.59Q172.59-12.51 172.59-14.70L172.59-14.70L172.59-14.70Q172.59-16.71 171.49-17.54L171.49-17.54L171.49-17.54Q170.40-18.36 168.03-18.36L168.03-18.36L163.59-18.36L163.59-10.68L168.06-10.68" fill="#fc880f" stroke="none" stroke-width="none" transform="translate(-109.93499755859375,8.116802164713546)" style="fill: rgb(252, 136, 15);"></path></g><g class="path" style="opacity: 1; transform-origin: 73.065px -2.3232px; animation: 2.7027s linear -0.346847s infinite normal forwards running fade-7b437d6e-4c76-4860-b2da-713096091887;"><path d="M181.68 0L181.68-20.88L184.32-20.88L184.32 0L181.68 0" fill="#fc880f" stroke="none" stroke-width="none" transform="translate(-109.93499755859375,8.116802164713546)" style="fill: rgb(252, 136, 15);"></path></g><g class="path" style="opacity: 1; transform-origin: 87.84px -2.3232px; animation: 2.7027s linear -0.173423s infinite normal forwards running fade-7b437d6e-4c76-4860-b2da-713096091887;"><path d="M204.00-18.36L194.19-18.36L194.19-11.76L203.34-11.76L203.34-9.36L194.19-9.36L194.19-2.52L204.00-2.52L204.00 0L191.55 0L191.55-20.88L204.00-20.88L204.00-18.36" fill="#fc880f" stroke="none" stroke-width="none" transform="translate(-109.93499755859375,8.116802164713546)" style="fill: rgb(252, 136, 15);"></path></g><g class="path" style="opacity: 1; transform-origin: 106.665px -2.3232px; animation: 2.7027s linear 0s infinite normal forwards running fade-7b437d6e-4c76-4860-b2da-713096091887;"><path d="M216.78 0.36L216.78 0.36Q215.04 0.36 213.15-0.09L213.15-0.09L213.15-0.09Q211.26-0.54 209.58-1.32L209.58-1.32L209.58-4.17L209.58-4.17Q211.56-3.09 213.25-2.58L213.25-2.58L213.25-2.58Q214.95-2.07 216.60-2.07L216.60-2.07L216.60-2.07Q218.67-2.07 219.81-3L219.81-3L219.81-3Q220.95-3.93 220.95-5.55L220.95-5.55L220.95-5.55Q220.95-6.66 220.32-7.41L220.32-7.41L220.32-7.41Q219.69-8.16 218.73-8.61L218.73-8.61L218.73-8.61Q217.77-9.06 216.15-9.60L216.15-9.60L216.15-9.60Q214.20-10.26 213.01-10.86L213.01-10.86L213.01-10.86Q211.83-11.46 210.99-12.57L210.99-12.57L210.99-12.57Q210.15-13.68 210.15-15.45L210.15-15.45L210.15-15.45Q210.15-18.09 212.07-19.66L212.07-19.66L212.07-19.66Q213.99-21.24 217.23-21.24L217.23-21.24L217.23-21.24Q220.38-21.24 223.02-19.89L223.02-19.89L223.02-17.13L223.02-17.13Q220.05-18.81 217.23-18.81L217.23-18.81L217.23-18.81Q215.16-18.81 213.99-17.98L213.99-17.98L213.99-17.98Q212.82-17.16 212.82-15.72L212.82-15.72L212.82-15.72Q212.82-14.73 213.42-14.07L213.42-14.07L213.42-14.07Q214.02-13.41 214.89-13.00L214.89-13.00L214.89-13.00Q215.76-12.60 217.35-12.03L217.35-12.03L217.35-12.03Q219.33-11.37 220.59-10.74L220.59-10.74L220.59-10.74Q221.85-10.11 222.73-8.91L222.73-8.91L222.73-8.91Q223.62-7.71 223.62-5.82L223.62-5.82L223.62-5.82Q223.62-3.96 222.78-2.56L222.78-2.56L222.78-2.56Q221.94-1.17 220.38-0.40L220.38-0.40L220.38-0.40Q218.82 0.36 216.78 0.36L216.78 0.36" fill="#fc880f" stroke="none" stroke-width="none" transform="translate(-109.93499755859375,8.116802164713546)" style="fill: rgb(252, 136, 15);"></path></g></g>
</g>
</g>
</svg>
